<?xml version="1.0" standalone="no"?>
<!DOCTYPE svg PUBLIC "-//W3C//DTD SVG 20010904//EN"
 "http://www.w3.org/TR/2001/REC-SVG-20010904/DTD/svg10.dtd">
<svg version="1.0" xmlns="http://www.w3.org/2000/svg"
 width="96.000000pt" height="96.000000pt" viewBox="0 0 96.000000 96.000000"
 preserveAspectRatio="xMidYMid meet">

<g transform="translate(0.000000,96.000000) scale(0.100000,-0.100000)"
fill="#000000" stroke="none">
<path d="M187 773 c-4 -3 -7 -42 -7 -85 l0 -79 83 3 82 3 3 83 3 82 -79 0
c-43 0 -82 -3 -85 -7z"/>
<path d="M402 698 l3 -83 75 0 75 0 3 83 3 82 -81 0 -81 0 3 -82z"/>
<path d="M612 698 l3 -83 83 -3 83 -3 -3 83 -3 83 -83 3 -83 3 3 -83z"/>
<path d="M180 475 l0 -76 83 3 82 3 3 73 3 72 -86 0 -85 0 0 -75z"/>
<path d="M402 478 l3 -73 75 0 75 0 3 73 3 72 -81 0 -81 0 3 -72z"/>
<path d="M612 478 l3 -73 83 -3 82 -3 0 76 0 75 -85 0 -86 0 3 -72z"/>
<path d="M182 263 l3 -78 83 -3 82 -3 0 81 0 80 -85 0 -86 0 3 -77z"/>
<path d="M400 260 l0 -80 80 0 80 0 0 80 0 80 -80 0 -80 0 0 -80z"/>
<path d="M610 260 l0 -81 83 3 82 3 3 78 3 77 -86 0 -85 0 0 -80z"/>
</g>
</svg>
