<?xml version="1.0" standalone="no"?>
<!DOCTYPE svg PUBLIC "-//W3C//DTD SVG 20010904//EN"
 "http://www.w3.org/TR/2001/REC-SVG-20010904/DTD/svg10.dtd">
<svg version="1.0" xmlns="http://www.w3.org/2000/svg"
 width="96.000000pt" height="96.000000pt" viewBox="0 0 96.000000 96.000000"
 preserveAspectRatio="xMidYMid meet">

<g transform="translate(0.000000,96.000000) scale(0.100000,-0.100000)"
fill="#000000" stroke="none">
<path d="M169 699 c-18 -34 3 -69 41 -69 22 0 33 6 41 24 16 35 -3 66 -41 66
-20 0 -33 -7 -41 -21z"/>
<path d="M333 684 c-14 -37 21 -44 221 -44 220 0 236 3 236 36 l0 24 -225 0
c-200 0 -226 -2 -232 -16z"/>
<path d="M167 500 c-8 -30 3 -58 24 -63 46 -12 74 17 62 63 -4 16 -14 20 -43
20 -29 0 -39 -4 -43 -20z"/>
<path d="M334 495 c-4 -8 -4 -22 0 -30 5 -13 37 -15 228 -13 l223 3 0 25 0 25
-223 3 c-191 2 -223 0 -228 -13z"/>
<path d="M169 309 c-18 -34 3 -69 41 -69 22 0 33 6 41 24 16 35 -3 66 -41 66
-20 0 -33 -7 -41 -21z"/>
<path d="M333 294 c-14 -37 21 -44 221 -44 220 0 236 3 236 36 l0 24 -225 0
c-200 0 -226 -2 -232 -16z"/>
</g>
</svg>
