<svg id="Layer_1" data-name="Layer 1" xmlns="http://www.w3.org/2000/svg" xmlns:xlink="http://www.w3.org/1999/xlink" viewBox="0 0 381.88 337.43"><defs><style>.cls-1{fill:none;}.cls-2{fill:#2c5f68;}.cls-3{fill:#3c7c87;}.cls-4{fill:#336e7b;}.cls-5{fill:#418c99;}.cls-6{fill:#556270;}.cls-7{fill:#fecea8;}.cls-8{fill:#ffb380;}.cls-9{opacity:0.5;}.cls-10{fill:#ca9e67;}.cls-11{fill:#dc4437;}.cls-12{fill:#e57368;}.cls-13{fill:#ff847c;}.cls-14{fill:#95d8e9;}.cls-15{fill:#ffde00;}.cls-16{fill:#ea5b0c;}.cls-17{fill:#f8ca00;}.cls-18{fill:#109d59;}.cls-19{fill:#34b67a;}.cls-20{fill:#89695e;}.cls-21{fill:#795547;}.cls-22{fill:#666;}.cls-23{fill:#4dbfd9;}.cls-24{fill:#8dc375;}.cls-25{fill:#8a9b0f;}.cls-26{fill:#f5815a;}.cls-27{fill:#f7971e;}.cls-28{fill:#424242;}.cls-29{fill:#c7f464;}.cls-30{fill:#1abc9c;}.cls-31{fill:#3ad8ba;}.cls-32{fill:#f15723;}.cls-33{fill:#b8f2ff;}.cls-34{fill:#67e5d8;}.cls-35{fill:#84f7e9;}.cls-36{opacity:0.4;}.cls-37{fill:#73e5da;}.cls-38{fill:#fff;}.cls-39{fill:#ab948c;}.cls-40{fill:#bcbcbc;}.cls-41{fill:#ffdd4d;}.cls-42{fill:#f9af7d;}.cls-43{fill:#15a0c9;}.cls-44{clip-path:url(#clip-path);}.cls-45{fill:#2ecc71;}.cls-46{opacity:0.29;}.cls-47{fill:#6f85bf;}.cls-48{fill:#f9b256;}.cls-49{fill:#27ae60;}.cls-50{fill:#ffe167;}.cls-51{fill:#9e69af;}.cls-52{fill:#f90;}.cls-53{fill:#fcab3f;}</style><clipPath id="clip-path" transform="translate(-34.06 -17.91)"><circle class="cls-1" cx="132.71" cy="116.64" r="26.97"/></clipPath></defs><polygon class="cls-2" points="101.94 251.18 152.4 183.19 193.82 262.63 101.94 251.18"/><polygon class="cls-3" points="190.62 257.66 234.61 169.22 267.98 250.86 190.62 257.66"/><polygon class="cls-4" points="218.31 268.98 262.3 180.53 288.21 249.4 218.31 268.98"/><polygon class="cls-4" points="79.92 253.18 125.86 178.62 171.8 264.63 79.92 253.18"/><polygon class="cls-5" points="148.57 256.17 193 136.59 237.43 267.62 148.57 256.17"/><path class="cls-6" d="M409.86,337.82H242.14a4.41,4.41,0,0,0-4.41,4.41h0a114.59,114.59,0,0,1-12.73.61,112.22,112.22,0,0,1-12.73-.61h0a4.41,4.41,0,0,0-4.41-4.41H40.14a6.08,6.08,0,0,0-6.08,6.08v4.56H201c3.7,4,13,6.88,24,6.88s20.28-2.86,24-6.88h167V343.9A6.08,6.08,0,0,0,409.86,337.82Z" transform="translate(-34.06 -17.91)"/><path class="cls-7" d="M225,337.82H409.86l-26.7-30-102.32-4c-16.09-.65-42.56-.12-48.4,14.88Z" transform="translate(-34.06 -17.91)"/><path class="cls-7" d="M225,337.82H40.14l26.7-30,102.32-4c16.09-.65,42.56-.12,48.4,14.88Z" transform="translate(-34.06 -17.91)"/><polygon class="cls-8" points="190.94 319.91 185.28 305.38 19.02 305.38 6.08 319.91 190.94 319.91"/><polygon class="cls-8" points="190.94 319.91 196.6 305.38 362.86 305.38 375.8 319.91 190.94 319.91"/><g class="cls-9"><rect class="cls-10" x="123.08" y="302.42" width="39.23" height="2.96"/></g><polygon class="cls-11" points="156.12 334.82 142.69 325.82 129.27 334.82 129.27 303.9 156.12 303.9 156.12 334.82"/><polygon class="cls-12" points="142.69 303.9 142.69 325.82 156.12 334.82 156.12 303.9 142.69 303.9"/><path class="cls-8" d="M370.59,299.76c-62.52-3.7-98.64,2-119.51,9.84a110.51,110.51,0,0,1,14.37-5.87c23.51-7.84,56.09-12,94.21-12a2.38,2.38,0,1,0,0-4.68c-57.16,0-99.71,8.92-121.38,24.41,17.49-21.17,55-35.84,98.42-35.84a2.38,2.38,0,1,0,0-4.68c-54.49,0-100.2,22.5-111.7,52.53-11.5-30-57.21-52.53-111.7-52.53a2.38,2.38,0,1,0,0,4.68c43.39,0,80.92,14.67,98.42,35.84C190.05,296,147.5,287.07,90.34,287.07a2.38,2.38,0,1,0,0,4.68c38.12,0,70.69,4.14,94.21,12a109.94,109.94,0,0,1,14.37,5.87c-20.87-7.85-57-13.54-119.5-9.84a2.52,2.52,0,0,0-2.59,2.5,2.67,2.67,0,0,0,3,2.17c88.93-5.27,121.63,9.12,133.2,18.17,6,4.7,9.2,10.12,9.2,15.68a2.83,2.83,0,0,0,5.58,0c0-5.56,3.18-11,9.2-15.68,11.57-9,44.27-23.43,133.21-18.17a2.68,2.68,0,0,0,3-2.17A2.52,2.52,0,0,0,370.59,299.76Z" transform="translate(-34.06 -17.91)"/><path class="cls-13" d="M235.21,340.65H214.84a.74.74,0,0,1-.74-.74v-1.34a.74.74,0,0,1,.74-.74h20.37a.74.74,0,0,1,.74.74v1.34A.74.74,0,0,1,235.21,340.65Z" transform="translate(-34.06 -17.91)"/><path class="cls-14" d="M208,130.16a15.69,15.69,0,0,0,.23-2.59,15.43,15.43,0,0,0-27.92-9.09,10.64,10.64,0,0,0-15.36,6.6h-3.59a11.63,11.63,0,0,0-11.6,11.6h0a11.63,11.63,0,0,0,11.6,11.6h37.06a11.63,11.63,0,0,0,11.6-11.6h0A11.52,11.52,0,0,0,208,130.16Z" transform="translate(-34.06 -17.91)"/><path class="cls-15" d="M171.87,94.47a2.05,2.05,0,0,1-2.05-2v-2.9a2,2,0,1,1,4.1,0v2.9A2,2,0,0,1,171.87,94.47Z" transform="translate(-34.06 -17.91)"/><path class="cls-16" d="M194.37,89H183.6a1.54,1.54,0,1,1,0-3.08h10.77a1.54,1.54,0,1,1,0,3.08Z" transform="translate(-34.06 -17.91)"/><path class="cls-16" d="M189,94.39a1.54,1.54,0,0,1-1.54-1.54V82.08a1.54,1.54,0,1,1,3.08,0V92.85A1.55,1.55,0,0,1,189,94.39Z" transform="translate(-34.06 -17.91)"/><path class="cls-16" d="M281.26,79.8h-4.79a.68.68,0,0,1,0-1.36h4.79a.68.68,0,0,1,.68.68A.67.67,0,0,1,281.26,79.8Z" transform="translate(-34.06 -17.91)"/><path class="cls-16" d="M278.87,82.2a.68.68,0,0,1-.68-.68V76.73a.68.68,0,0,1,1.36,0v4.79A.69.69,0,0,1,278.87,82.2Z" transform="translate(-34.06 -17.91)"/><path class="cls-16" d="M164,48.6h-5.45a.68.68,0,1,1,0-1.36H164a.68.68,0,1,1,0,1.36Z" transform="translate(-34.06 -17.91)"/><path class="cls-16" d="M161.29,51.33a.68.68,0,0,1-.68-.68V45.2a.68.68,0,0,1,1.36,0v5.45A.69.69,0,0,1,161.29,51.33Z" transform="translate(-34.06 -17.91)"/><path class="cls-16" d="M324.31,147.08h-5.45a.68.68,0,0,1,0-1.36h5.45a.68.68,0,0,1,0,1.36Z" transform="translate(-34.06 -17.91)"/><path class="cls-16" d="M321.59,149.8a.68.68,0,0,1-.68-.68v-5.45a.68.68,0,1,1,1.36,0v5.45A.67.67,0,0,1,321.59,149.8Z" transform="translate(-34.06 -17.91)"/><path class="cls-16" d="M365.67,227.48h-5.45a.69.69,0,0,1,0-1.37h5.45a.69.69,0,0,1,.69.68A.7.7,0,0,1,365.67,227.48Z" transform="translate(-34.06 -17.91)"/><path class="cls-16" d="M362.94,230.2a.68.68,0,0,1-.68-.68v-5.45a.68.68,0,0,1,1.36,0v5.45A.67.67,0,0,1,362.94,230.2Z" transform="translate(-34.06 -17.91)"/><path class="cls-15" d="M264.68,57.73c-19.28,0-26.56,7.27-26.56,26.56,0-19.29-7.27-26.56-26.56-26.56,19.28,0,26.56-7.27,26.56-26.56C238.12,50.45,245.4,57.73,264.68,57.73Z" transform="translate(-34.06 -17.91)"/><path class="cls-17" d="M209,63.92c-9.64,0-13.28,3.64-13.28,13.28,0-9.64-3.64-13.28-13.27-13.28,9.64,0,13.27-3.64,13.27-13.28C195.69,60.28,199.32,63.92,209,63.92Z" transform="translate(-34.06 -17.91)"/><path class="cls-17" d="M305.74,62.65c-4.3,0-5.92,1.62-5.92,5.92,0-4.3-1.62-5.92-5.92-5.92,4.3,0,5.92-1.62,5.92-5.92C299.82,61,301.44,62.65,305.74,62.65Z" transform="translate(-34.06 -17.91)"/><path class="cls-15" d="M256.3,43.77a2.05,2.05,0,0,1-2.05-2.05V31.84a2.05,2.05,0,0,1,4.1,0v9.88A2,2,0,0,1,256.3,43.77Z" transform="translate(-34.06 -17.91)"/><path class="cls-15" d="M273,120.17a2.05,2.05,0,0,1-2-2v-6a2.05,2.05,0,1,1,4.1,0v6A2.05,2.05,0,0,1,273,120.17Z" transform="translate(-34.06 -17.91)"/><path class="cls-15" d="M189.63,134.93a4.59,4.59,0,0,1-4.59-4.59V109.5a4.59,4.59,0,0,1,9.18,0v20.84A4.6,4.6,0,0,1,189.63,134.93Z" transform="translate(-34.06 -17.91)"/><path class="cls-15" d="M216.17,36.77a2.05,2.05,0,0,1-2-2.05v-7.1a2,2,0,0,1,4.1,0v7.1A2.05,2.05,0,0,1,216.17,36.77Z" transform="translate(-34.06 -17.91)"/><path class="cls-15" d="M236.62,25.56a2.05,2.05,0,0,1-2.05-2V20a2,2,0,1,1,4.1,0v3.55A2,2,0,0,1,236.62,25.56Z" transform="translate(-34.06 -17.91)"/><path class="cls-15" d="M251.43,80.81a2.05,2.05,0,0,1-2.05-2V73.33a2.05,2.05,0,1,1,4.1,0v5.43A2.05,2.05,0,0,1,251.43,80.81Z" transform="translate(-34.06 -17.91)"/><path class="cls-15" d="M255.9,103.41a2.05,2.05,0,0,1-2.05-2V94.57a2,2,0,1,1,4.1,0v6.79A2.05,2.05,0,0,1,255.9,103.41Z" transform="translate(-34.06 -17.91)"/><path class="cls-18" d="M175.65,281.85c8.88-6.79,21.64-11.93,36.5-14.41-7.94-10.6-17.77-17.79-39.82-17.79-24.5,0-52.67,9-60,21.44a3.41,3.41,0,0,1,.92-.14C136.29,271,157.7,275,175.65,281.85Z" transform="translate(-34.06 -17.91)"/><path class="cls-18" d="M336.07,271c-8.78-11.56-26.52-21.58-47-21.58-17.81,0-33.54,7.58-43.12,17.15,15,1.63,28.29,5.93,38.19,12A180.35,180.35,0,0,1,336.07,271Z" transform="translate(-34.06 -17.91)"/><path class="cls-19" d="M225,323.48c7.5-19.59,29.57-36,59.13-45-9.9-6-23.17-10.32-38.19-12a124.87,124.87,0,0,0-13.57-.73,122.9,122.9,0,0,0-20.22,1.65c-14.86,2.48-27.63,7.61-36.5,14.41C200.26,291.28,218.35,306.12,225,323.48Z" transform="translate(-34.06 -17.91)"/><rect class="cls-12" x="184.62" y="256.37" width="22.42" height="24.02"/><rect class="cls-20" x="181.84" y="276.8" width="27.32" height="3.59"/><polygon class="cls-21" points="195.83 243.32 178.42 260.72 181 263.3 195.83 248.46 210.66 263.3 213.24 260.72 195.83 243.32"/><polygon class="cls-22" points="195.83 248.46 187.93 256.37 203.74 256.37 195.83 248.46"/><rect class="cls-6" x="187.16" y="266.65" width="4.87" height="10.15"/><rect class="cls-23" x="195.5" y="266.65" width="8.24" height="7.41"/><path class="cls-6" d="M236.88,285.48v5.57h-6.4c0-2.75,0-4.48-.06-5.57Zm.92-.92h-8.24V292h8.24v-7.41Z" transform="translate(-34.06 -17.91)"/><path class="cls-23" d="M229.56,282.24a2.82,2.82,0,1,1,2.82-2.82A2.82,2.82,0,0,1,229.56,282.24Z" transform="translate(-34.06 -17.91)"/><path class="cls-6" d="M229.56,277.06a2.36,2.36,0,1,1-2.36,2.36,2.36,2.36,0,0,1,2.36-2.36Zm0-.92a3.28,3.28,0,1,0,3.28,3.28,3.28,3.28,0,0,0-3.28-3.28Z" transform="translate(-34.06 -17.91)"/><rect class="cls-21" x="150.49" y="237.67" width="1.44" height="11.31"/><path class="cls-24" d="M191.68,254.31a6.41,6.41,0,1,1-6.41-6.41A6.41,6.41,0,0,1,191.68,254.31Z" transform="translate(-34.06 -17.91)"/><rect class="cls-21" x="220.6" y="245.5" width="1.64" height="12.69"/><path class="cls-25" d="M258.69,261.23c0,4.67.33,8.46-3.21,8.46-3.21,0-3.21-3.79-3.21-8.46s1.44-8.46,3.21-8.46S258.69,256.56,258.69,261.23Z" transform="translate(-34.06 -17.91)"/><rect class="cls-17" x="159.54" y="244.37" width="14.16" height="15.17"/><rect class="cls-22" x="157.78" y="257.28" width="17.26" height="2.27"/><polygon class="cls-26" points="166.62 236.13 155.62 247.12 157.25 248.75 166.62 239.38 175.99 248.75 177.62 247.12 166.62 236.13"/><polygon class="cls-27" points="166.62 239.38 161.63 244.37 171.61 244.37 166.62 239.38"/><rect class="cls-28" x="161.14" y="250.86" width="3.08" height="6.41"/><rect class="cls-23" x="166.41" y="250.86" width="5.21" height="4.68"/><path class="cls-23" d="M200.47,267.31a1.78,1.78,0,1,1,1.78-1.78A1.78,1.78,0,0,1,200.47,267.31Z" transform="translate(-34.06 -17.91)"/><path class="cls-6" d="M200.47,264a1.49,1.49,0,1,1-1.49,1.49,1.49,1.49,0,0,1,1.49-1.49Zm0-.58a2.07,2.07,0,1,0,2.07,2.07,2.07,2.07,0,0,0-2.07-2.07Z" transform="translate(-34.06 -17.91)"/><path class="cls-6" d="M205.5,269v4.23h-4.86c0-2.09,0-3.4,0-4.23Zm.7-.7h-6.26v5.62h6.26V268.3Z" transform="translate(-34.06 -17.91)"/><rect class="cls-21" x="173.27" y="259.89" width="1.64" height="12.69"/><path class="cls-29" d="M211.36,275.63c.75,4.61.33,8.46-3.21,8.46-3.21,0-4.18-3.89-3.21-8.46s2.12-8.46,3.21-8.46S210.57,270.77,211.36,275.63Z" transform="translate(-34.06 -17.91)"/><path class="cls-30" d="M245.3,133.84c0-32.15-20.09-58.2-20.09-58.2s-20.09,26.06-20.09,58.2L211,184.76h28.42Z" transform="translate(-34.06 -17.91)"/><path class="cls-31" d="M245.3,133.84c0-32.15-20.09-58.2-20.09-58.2l0,109.13h14.23Z" transform="translate(-34.06 -17.91)"/><path class="cls-32" d="M241.23,184.76l3.5-30.08,14.39,24.4v25.63S257,192.56,250.18,187C247.45,184.72,241.23,184.76,241.23,184.76Z" transform="translate(-34.06 -17.91)"/><path class="cls-32" d="M209.19,184.76l-3.5-30.08-14.39,24.4v25.63s2.14-12.15,8.94-17.75C203,184.72,209.19,184.76,209.19,184.76Z" transform="translate(-34.06 -17.91)"/><path class="cls-14" d="M238.86,131a13.65,13.65,0,1,1-13.65-13.65A13.65,13.65,0,0,1,238.86,131Z" transform="translate(-34.06 -17.91)"/><path class="cls-33" d="M216.84,120.23l7.25,24.35c.37,0,.74.06,1.12.06a13.59,13.59,0,0,0,5.63-1.23l-7.71-25.89A13.51,13.51,0,0,0,216.84,120.23Z" transform="translate(-34.06 -17.91)"/><path class="cls-33" d="M235.21,140.26l-6.7-22.5a13.66,13.66,0,0,0-3.29-.42h0l7.47,25.07A13.72,13.72,0,0,0,235.21,140.26Z" transform="translate(-34.06 -17.91)"/><path class="cls-26" d="M259.12,204.71V179.08l-8.94-15.17V187C257,192.56,259.12,204.71,259.12,204.71Z" transform="translate(-34.06 -17.91)"/><path class="cls-26" d="M205.69,154.68l-5.44,9.23V187c2.73-2.25,8.94-2.2,8.94-2.2Z" transform="translate(-34.06 -17.91)"/><path class="cls-34" d="M259.12,205.74a8.89,8.89,0,0,0-4,.94,6.77,6.77,0,0,0-5-2.19,6.9,6.9,0,0,0-1.89.27,8.69,8.69,0,0,0-14.37-5.4,7.31,7.31,0,0,1-1.2-1.92v-9.88H217.66v9a7.27,7.27,0,0,1-3.2,4.23,7.29,7.29,0,0,0-10.52,2.73,11.26,11.26,0,0,0-15,10.62,8.24,8.24,0,1,0,10.77,11.27l.5,0a11.28,11.28,0,0,0,9.82-5.73,8.37,8.37,0,0,0,13.06.21,5.76,5.76,0,0,0,9-.64,5.76,5.76,0,0,0,4.35,2,6.64,6.64,0,0,0,1-.09,7.88,7.88,0,0,0,15.73-.07,8.84,8.84,0,1,0,6-15.37Z" transform="translate(-34.06 -17.91)"/><path class="cls-35" d="M211.21,202.2a7.53,7.53,0,0,1,4.19,1.27,6.48,6.48,0,0,0-11.46,4.16v.07A7.55,7.55,0,0,1,211.21,202.2Z" transform="translate(-34.06 -17.91)"/><path class="cls-35" d="M246.94,206.66a7.55,7.55,0,0,0-14.58-3.08,9.69,9.69,0,0,1,14.58,3.08Z" transform="translate(-34.06 -17.91)"/><path class="cls-35" d="M201.46,206.67a10.06,10.06,0,0,1,4.7,1.16,8.33,8.33,0,0,0-14.85,5.2,8.21,8.21,0,0,0,.2,1.8A10.15,10.15,0,0,1,201.46,206.67Z" transform="translate(-34.06 -17.91)"/><path class="cls-35" d="M265.43,215.61a6.81,6.81,0,0,0,.05-.78,6.36,6.36,0,0,0-11.81-3.27,8.39,8.39,0,0,1,11.76,4.05Z" transform="translate(-34.06 -17.91)"/><path class="cls-15" d="M214.12,194.08a2.05,2.05,0,0,1-2.05-2.05V165a2,2,0,1,1,4.1,0v27A2.05,2.05,0,0,1,214.12,194.08Z" transform="translate(-34.06 -17.91)"/><path class="cls-15" d="M225.2,189.59a2.05,2.05,0,0,1-2-2.05V169.48a2.05,2.05,0,0,1,4.1,0v18.06A2.05,2.05,0,0,1,225.2,189.59Z" transform="translate(-34.06 -17.91)"/><path class="cls-15" d="M236.62,196.56a2.05,2.05,0,0,1-2.05-2.05V172a2,2,0,1,1,4.1,0v22.52A2.05,2.05,0,0,1,236.62,196.56Z" transform="translate(-34.06 -17.91)"/><path class="cls-15" d="M187.74,204.76a2.05,2.05,0,0,1-2.05-2V186.77a2,2,0,1,1,4.1,0v15.94A2.05,2.05,0,0,1,187.74,204.76Z" transform="translate(-34.06 -17.91)"/><path class="cls-15" d="M197,199.67a2.05,2.05,0,0,1-2.05-2V183.25a2,2,0,1,1,4.1,0v14.37A2.05,2.05,0,0,1,197,199.67Z" transform="translate(-34.06 -17.91)"/><path class="cls-15" d="M254.65,202.18a2.05,2.05,0,0,1-2.05-2.05V183.25a2,2,0,1,1,4.1,0v16.88A2.05,2.05,0,0,1,254.65,202.18Z" transform="translate(-34.06 -17.91)"/><path class="cls-15" d="M247,192.28a2.05,2.05,0,0,1-2-2.05V170.36a2.05,2.05,0,1,1,4.1,0v19.87A2.05,2.05,0,0,1,247,192.28Z" transform="translate(-34.06 -17.91)"/><path class="cls-15" d="M263.27,198.4a2.05,2.05,0,0,1-2-2.05v-5a2.05,2.05,0,1,1,4.1,0v5A2.05,2.05,0,0,1,263.27,198.4Z" transform="translate(-34.06 -17.91)"/><rect class="cls-20" x="332.59" y="105.86" width="5.58" height="22.21" transform="translate(35.88 335.08) rotate(-60.87)"/><rect class="cls-28" x="322.3" y="107.95" width="2.29" height="5.13" transform="translate(35.39 321.34) rotate(-60.87)"/><g class="cls-36"><path class="cls-37" d="M322.14,109.78A12.35,12.35,0,1,1,317.37,93,12.36,12.36,0,0,1,322.14,109.78Z" transform="translate(-34.06 -17.91)"/><path class="cls-38" d="M303,96l13.42,18a11.3,11.3,0,0,0,3.78-3L307,93.22A11.33,11.33,0,0,0,303,96Z" transform="translate(-34.06 -17.91)"/><path class="cls-38" d="M308.73,92.65l12.52,16.83.09-.15a11.68,11.68,0,0,0,1-2.5L311.59,92.35A11.4,11.4,0,0,0,308.73,92.65Z" transform="translate(-34.06 -17.91)"/></g><rect class="cls-39" x="335.78" y="104.2" width="1.29" height="22.21" transform="translate(37.84 335.1) rotate(-60.86)"/><rect class="cls-21" x="333.69" y="107.95" width="1.29" height="22.21" transform="translate(33.49 335.19) rotate(-60.86)"/><path class="cls-6" d="M301.38,98.21a11.42,11.42,0,1,1,4.41,15.54,11.43,11.43,0,0,1-4.41-15.54Zm-1.61-.9a13.27,13.27,0,1,0,18.05-5.13,13.29,13.29,0,0,0-18.05,5.13Z" transform="translate(-34.06 -17.91)"/><path class="cls-40" d="M284.05,188l-2.3-1.3a4.75,4.75,0,0,1-2-4.49c.42-2.38.85-4.75,1.27-7.12l13.3,7.53-5.45,4.76A4.71,4.71,0,0,1,284.05,188Z" transform="translate(-34.06 -17.91)"/><path class="cls-17" d="M303,173.35a18,18,0,1,0-18.44-10.44l-3,5.36a10.45,10.45,0,0,0-1.29,6.34l15,8.47a10.58,10.58,0,0,0,4.77-4.37Z" transform="translate(-34.06 -17.91)"/><path class="cls-28" d="M281.75,186.7l2.3,1.3a4.72,4.72,0,0,0,4.81-.59l-9.08-5.14A4.72,4.72,0,0,0,281.75,186.7Z" transform="translate(-34.06 -17.91)"/><path class="cls-41" d="M309.92,139.87l-22.1,39,7.36,4.16a10.58,10.58,0,0,0,4.77-4.37l3-5.36a18,18,0,0,0,6.93-33.48Z" transform="translate(-34.06 -17.91)"/><polygon class="cls-7" points="253.65 203.25 304.32 147.63 292.71 221.97 253.65 203.25"/><polygon class="cls-42" points="273.18 212.61 304.32 147.63 253.65 203.25 273.18 212.61"/><polygon class="cls-42" points="280.59 216.18 269.62 220.04 265.76 209.07 304.32 147.63 280.59 216.18"/><polygon class="cls-7" points="265.76 209.07 269.62 220.04 304.32 147.63 265.76 209.07"/><path class="cls-11" d="M151.79,163.15a17.4,17.4,0,0,0-8.78,23c3.92,8.77,30.42,25.41,30.42,25.41s5.26-30.84,1.34-39.61A17.38,17.38,0,0,0,151.79,163.15Zm11.45,25.59a10.56,10.56,0,1,1,5.33-14A10.56,10.56,0,0,1,163.24,188.74Z" transform="translate(-34.06 -17.91)"/><path class="cls-12" d="M151.79,163.15l2.83,6.32a10.56,10.56,0,1,1,8.62,19.28l10.19,22.79s5.26-30.84,1.34-39.61A17.38,17.38,0,0,0,151.79,163.15Z" transform="translate(-34.06 -17.91)"/><circle id="SVGID" class="cls-43" cx="98.65" cy="98.73" r="26.97"/><g class="cls-44"><path class="cls-45" d="M127.18,124.88c-.79-.62-2.22-.62-3-.9-.22-.15-.89-1.58-1.63-.15.14-3-3.3-2.92-4.3-4.76,0,0,.35,0,.34-.09.15.64-3-.57-2.68-.57.13,0-.55.64-.53.54s-.08-.14-.08-.22.42-.12.28-.31c-.5-.67-2.09,1.6-2,1.6a2.46,2.46,0,0,1-2.14-1.54c-.69-1.56.6-.81-1.51-1.45a6.71,6.71,0,0,0,.9-2.09c-.27-.52-2.6,1.89-2.71,1.15a20.86,20.86,0,0,1-.29-3.29c1.4-.64,1.65-.93,2.76-.6-.44-.12.49-.6.57-.69.07-.84,2.4,2.15,1.77,2.15.7,0,.11-3,1.47-3.27.71-.15.83-.73,1.06-.9s0-1.2.45-1.24c0,.08-.35.79-.28.88s.45-.79.45-.85c.06.6.93-1.07,1.23-.66a1,1,0,0,0-.34,0c.56-.15.69-.29.72-.09,0-.06.49-.07.39-.28,0,0-.32.17-.28-.12s.71-.55,1-.77c0,.15,1.09-.23,1.43-.5,0,0-.22.14-.21.16s.27,0,.29,0c0,.27-1,.1-.79.68.09.22,2.59-1.26,2-1.26-1.35,0-.4.77-1-.31a3.34,3.34,0,0,1-.62,0v0c.37.09.54-.23.81-.29.2-.6-2.29.69-2.23.69,1.34-1.25,2.7-.77,4.09-1.5,1.24,0,1.19-1.57.35-1,.12-.15.52,0,.6-.2s-.15-.21-.18-.25c-1.42-.06.21-1.36-.76-1.88,1.27.71-3.35-.17-1.21-.17,0,0,0,0,0,0s-.51-.08-.53-.08c.43-.22-.72-.51-1-.41-.84-.13-1.25,2.13-1.93,2.52-2.23,1.29-.3,1.48-1.17,0a6.42,6.42,0,0,0-2.32-.7c-.31.42,1.54-3,2.05-2.18-.1-.17-.48,0-.59-.2,1.14.25,1.46-.33,2.46-.62-.31.29-.62.58-.9.81a5.49,5.49,0,0,0,1.79-.06c-.18.14-.51-.8-.68-.8s0,.23-.14.26c.07-.1.13-.22,0-.24a.11.11,0,0,0,0-.11l.16,0s.28.31.35.31c-.1,0,1.42-.88,1.17-1.31,0,0,1.32.07,1-.31.21,0,.27.53.48.37,0,.15-.34,0-.32.19s.43,0,.48,0c0,.15-.21.25-.21.27.07.37.31-.19.31-.2s0,0,.14.07c-.06.25-1.91,1.45-2.08,1.2,0,0,2.25,1,2.55,1s-.34-.63-.35-.66c.31,0,.56.48.79.48.06,0,.39-.9.37-.7,0-.08-.53-.48-.51-.49-.07.24,1.44-.14,1.83-.31-.1,0-1.28-.61-1.28-.62s.56-.12.57-.21c0-.44-.29.32,0-.13,0,0-.81-.92-1.16-.46l-.4-.45c.1-.46-.8-.33-.79-.2,0-.08.15.23.08.17.14.08.42-.07.51,0a6.09,6.09,0,0,1-.89.21c0-.08.31-.29.3-.45,0-.57-1.36.59-1.37.63l-.12.07s-.16-.09-.17-.13c0-.3.86-.54.84-.64-.1-.33-1.75.35-1.88.74v0a3.1,3.1,0,0,1,.53.07c-.06,0-.59-.08-.56.07s1.36.25,1.36.26l-.11.09c-.3.17-1.27.28-1.19.45a6,6,0,0,1-.51.35.39.39,0,0,0-.11-.17c.07-.11.52-.2.34-.42,0,0-.11-.13-.13-.13a.76.76,0,0,0-.47.39c-.21-.37.32-.22.33-.33s-.49-.11-.51-.13c.16-.12.68-.46.19-.68,0,0,0,0,0,0,.29-.08,1.46-.29,1.6-.56,0,.09-2.4.49-2.66,1.07-.1.23.34.19.39.2s0,.06.07.07c-.16.06-.91.4-.91.63l-.12,0-.08,0a2.12,2.12,0,0,1,.3-.26s-.26,0-.3-.07a4.56,4.56,0,0,0,.78-.3c.09-.19-1.27-.1-1.21.15s.25,0,.31,0a1.82,1.82,0,0,1-1.75.2,3.09,3.09,0,0,0-1,.4s-.1,0-.1,0a.19.19,0,0,0-.2-.26s.21-.09.21-.1-1.3.27-1.53.09c0-.14.6,0,.5-.22-.26-.49-1.7-.22-2.09-.28,0,0,0,0,.06,0a1.57,1.57,0,0,0,.19-.18c0-.22-.65.3-.72.18s.11-.28.08-.33a.25.25,0,0,0-.13-.05c-.38,0-.31.45-.37.15.11.54-5.73-.24-5.91-.24,0-.2-3.91.58-3.89.86,0,.12.25.57.48.38,0,.32-.61.35-.76.3,0,0,.24-.16.17-.18a6,6,0,0,0-1.55.38c0,.08.24.08.27.08s-.33.13-.32.22c0,.32,1.26,0,1.43-.06,0,0,.1-.14.11,0-.66.33-3.45.91-3,1.77.12.25.71-.32.83-.32-.11.06-.78.77-.84.72.21.21,1-.08,1.16-.18-.26.24,0,.18.19.11-.46.28-3.85,1.4-3.86,1.51s3.89-1.06,4.39-1.24c0,0-.65.24-.53.38a.07.07,0,0,1,.07,0,4.28,4.28,0,0,0,1.2-.52c0-.09,0,0,0-.09a7.23,7.23,0,0,0-.72.17,6.48,6.48,0,0,1,1.88-1c-.17.14-.81.43-.86.57.07-.2,2.08-.12,2.08-.56,0,.06-.34.17-.28.29s.39-.39.44.15c2.24-.33.71,1,1.3,1.79.13.18.46-.36.5-.58,0,0-.15,2-.08,1.94s.2,0,.11.05-.48-.33-.52-.06a29.9,29.9,0,0,1-1.21,5.66c-.15.31,1.94,2.61.79,2.61.37,0,.74,2.06,1.17,2.1,0,.08.24-.17.15,0,.08-.1-1-3.27-.74-3.27s1.26,2.35,1.69,3a9.86,9.86,0,0,1,.73,2c.09.32,1.9.64,2,.94-.09-.6,5.19,3,4.58,2.84a1.55,1.55,0,0,1,.23.06s-.3.29-.08.29,1-.75,1.09-.45c.06.46.39,1.78.33,1.78-.94,0-1.17,2.64-.9,2.3-.4,3.31,3.7,4.83,3.78,8.29,0,1.17.88,6,.58,6.37-.07.09.13.65.22.65s0-.52.06-.69h.08a2.14,2.14,0,0,1,.19,1.11c-.09,0-.13-.25-.24-.25.1,0-.05,1.14,0,1.14s.49-.08.49-.23c0,0,.08.23.12.24s0,.14,0,.17c-.29.52.64,2,.77,1.79,0,0,0,.06,0,.1s-.22-.12-.21.06a7.54,7.54,0,0,0,2.68,1.07l0,0c.07-.19.12-.14.33-.47-1.89-.52-2.07-3.46-1.7-4.32.13-.27.24.31.4.08s-1-.46-.66-.75c.07-.06.86.49.86,0,0-.05-.24-.71-.23-.71,2.5-.68.78-.37.79-1.68,0,1.43,2.54-1.51,2.12-1.51.09,0-.25.48-.1.48s1-2.9,1.83-3.2,3.19-6.13,2.43-6.75Zm-4.59-21.77h0C122.65,103.09,122.59,103.12,122.59,103.11Zm-1.17-3.46c-.19.16.11-.15,0,0Zm.23-1.72c.15,0,.06,0,0,0Zm-1.32-1.06Zm-3.11,1Zm-.11,1ZM116,98.25c.24.1-.08,0,0,0Zm-1.64-.18s0,0,0,0Zm-3.88,13.66c.08-.1,0,0,0,0Zm-10.5-13h0S100,98.72,99.94,98.72Zm.45,1.77c-.56.1.11,0,0,0S100.42,100.48,100.39,100.49Zm2.5,1.63c.06-.1.17-.22,0,0C102.89,102.11,102.92,102.08,102.89,102.12Zm.43.45Zm7.74,16.22Zm4.48.69Zm2,20.26h0S117.5,139.74,117.51,139.74Zm.08.38c-.19-.17,0-.25,0,0Zm0,0Z" transform="translate(-34.06 -17.91)"/><path class="cls-45" d="M116.72,104.06v0A0,0,0,0,1,116.72,104.06Z" transform="translate(-34.06 -17.91)"/><path class="cls-45" d="M118.31,142.23c0,.06,0,0,0,0S118.32,142.23,118.31,142.23Z" transform="translate(-34.06 -17.91)"/><path class="cls-45" d="M118.9,119c-.36.24-.1.36,0,0Z" transform="translate(-34.06 -17.91)"/><path class="cls-45" d="M118,118.82c0-.13.07.23,0,0Z" transform="translate(-34.06 -17.91)"/><path class="cls-45" d="M121,105.76c.36.11-.52-.32-.41-.32,0,0-.18.1-.17.14C120.6,106,120.76,105.76,121,105.76Z" transform="translate(-34.06 -17.91)"/><path class="cls-45" d="M121.48,104.77c.22,0-.51-.62-.66-.36S121.35,104.77,121.48,104.77Z" transform="translate(-34.06 -17.91)"/><path class="cls-45" d="M121.72,100.62c-.5.21.1-.05,0,0S121.74,100.61,121.72,100.62Z" transform="translate(-34.06 -17.91)"/><path class="cls-45" d="M120,99.72Z" transform="translate(-34.06 -17.91)"/><path class="cls-45" d="M119.81,99.67Z" transform="translate(-34.06 -17.91)"/><path class="cls-45" d="M119.93,99.56h0S119.91,99.56,119.93,99.56Z" transform="translate(-34.06 -17.91)"/><path class="cls-45" d="M120.56,99.88Z" transform="translate(-34.06 -17.91)"/><path class="cls-45" d="M119.15,100Z" transform="translate(-34.06 -17.91)"/><path class="cls-45" d="M118.58,99.8c-.23-.07-.63.31-.55.32s.82-.23.55-.32C118.52,99.79,118.59,99.81,118.58,99.8Z" transform="translate(-34.06 -17.91)"/><path class="cls-45" d="M116.76,103.3c-.06-.45,0,.45,0,0C116.75,103.27,116.76,103.31,116.76,103.3Z" transform="translate(-34.06 -17.91)"/><path class="cls-45" d="M121.11,98.13c-.84.75.81-.76,0,0Z" transform="translate(-34.06 -17.91)"/><path class="cls-45" d="M120.6,98.09c.2,0,.16-.19,0,0Z" transform="translate(-34.06 -17.91)"/><path class="cls-45" d="M121.19,97.6Z" transform="translate(-34.06 -17.91)"/><path class="cls-45" d="M121.44,97.72Z" transform="translate(-34.06 -17.91)"/><path class="cls-45" d="M96.14,99.9c.17.36-.2-.41,0,0Z" transform="translate(-34.06 -17.91)"/><path class="cls-45" d="M95.53,100.94Z" transform="translate(-34.06 -17.91)"/><path class="cls-45" d="M97.66,102.05c-.43-.31,0,0,0,0S97.67,102.06,97.66,102.05Z" transform="translate(-34.06 -17.91)"/><path class="cls-45" d="M102.35,103c-.07.06-.14.69,0,.69a5.45,5.45,0,0,1,.47-.75c.06-.06-.44-.2-.51.06Z" transform="translate(-34.06 -17.91)"/><path class="cls-45" d="M123.05,142.14c-.18,0-.81-.13-.86,0s-.1.12-.13.18.11.07.09.15c.36.1.71-.33.9-.29Z" transform="translate(-34.06 -17.91)"/><path class="cls-45" d="M114.26,115.56s.71,0,.69-.13c-.18-1-2.76-1.16-3.49-.58.11-.06.24-.06.19.05.24-.12.6-.44.9-.3,0,.05-.14,0-.12.09.08.25,2,.9,1.83.87C114.4,115.59,114.23,115.55,114.26,115.56Z" transform="translate(-34.06 -17.91)"/><path class="cls-45" d="M112.18,114.76Z" transform="translate(-34.06 -17.91)"/><path class="cls-45" d="M114,113.86h0S114,113.88,114,113.86Z" transform="translate(-34.06 -17.91)"/><path class="cls-45" d="M115.15,115.19Z" transform="translate(-34.06 -17.91)"/><path class="cls-45" d="M114.07,116.14s-.72-.27-.62,0,.81,0,.62,0Z" transform="translate(-34.06 -17.91)"/><path class="cls-45" d="M115.87,116.19c.22-.17.53.07.73.07l.13-.14c.37-.51-1.48-.54-1.62-.55-.09.15.29.44.3.46s-.79-.13-.75.1,1.24,0,1.21.06S115.86,116.19,115.87,116.19Z" transform="translate(-34.06 -17.91)"/><path class="cls-45" d="M117.07,116.31c.16.21.6-.23.52-.23s-.76-.08-.52.23Z" transform="translate(-34.06 -17.91)"/><path class="cls-45" d="M118.4,116.18c-.27.07.17-.07,0,0Z" transform="translate(-34.06 -17.91)"/><path class="cls-45" d="M118.76,116.58c.08-.16-.07.15,0,0Z" transform="translate(-34.06 -17.91)"/><path class="cls-45" d="M119,116.83c-.2-.23.23.28,0,0C119,116.81,119,116.83,119,116.83Z" transform="translate(-34.06 -17.91)"/><path class="cls-45" d="M118.8,117.35c.22-.4.06,0,0,0Z" transform="translate(-34.06 -17.91)"/><path class="cls-45" d="M119,117.6c.2-.29-.12.18,0,0C119.05,117.57,119,117.61,119,117.6Z" transform="translate(-34.06 -17.91)"/><path class="cls-45" d="M119,117.87c.23-.39-.32.63,0,0Z" transform="translate(-34.06 -17.91)"/><path class="cls-45" d="M118.7,118.54c.09-.14,0-.18,0,0Z" transform="translate(-34.06 -17.91)"/><path class="cls-45" d="M118.66,111.08c.74-.73-.47.44,0,0Z" transform="translate(-34.06 -17.91)"/><path class="cls-45" d="M121.39,105.2Z" transform="translate(-34.06 -17.91)"/><path class="cls-45" d="M123.85,105.45c.19-.19,0-.44-.12-.3,0-.05.29-.26.21-.31s-.18.17-.27.17.24-.43.25-.42-.18-.14-.13-.14c-.42,0-.16.15-.36-.1-.07-.08-.31.06-.37.08,0-.21.6-.48.6-.59,0,.12-1.7,1.06-1.7,1.38a6.67,6.67,0,0,0,1.19.08s-.25.15-.25.16c0,.28.63-.25.63-.25a3,3,0,0,1-.14.33c.08.1.25.12.46-.09C123.86,105.44,123.84,105.47,123.85,105.45Z" transform="translate(-34.06 -17.91)"/><path class="cls-45" d="M122.85,105.45c-.07.1-.12.19,0,0Z" transform="translate(-34.06 -17.91)"/><path class="cls-45" d="M122.67,100.27Z" transform="translate(-34.06 -17.91)"/><path class="cls-45" d="M119.08,95.59c.11.13.59.19.64.21a.39.39,0,0,0-.29.36,1,1,0,0,0,.77-.06c0,.11-.12.15-.1.16a7.74,7.74,0,0,0,2.31-.26,11.1,11.1,0,0,0-2-.16c2.11-.62,3.94-.86,6.9-1.55,0,0-.1,0-.08,0,.29-.06.68-.06,1-.1-2-.51-4.32-.14-6.43.13a3.44,3.44,0,0,0,.89.29,3.25,3.25,0,0,0-2.38.25,5.4,5.4,0,0,0,1.52.39C121.33,95.05,119.67,95.59,119.08,95.59Zm4.12-1.07c-.06.31-.22,0,0,0Z" transform="translate(-34.06 -17.91)"/><path class="cls-45" d="M120.57,95.49c.1-.46-.16,0,0,0Z" transform="translate(-34.06 -17.91)"/><path class="cls-45" d="M119.56,95.38c.44-.32.47.19.49-.25C120.08,94.18,119,95.79,119.56,95.38Z" transform="translate(-34.06 -17.91)"/><path class="cls-45" d="M119.74,94.8c0-.4-.18,0,0,0Z" transform="translate(-34.06 -17.91)"/><path class="cls-45" d="M118.22,95.08c.21,0,.55.23.88.12C118.67,94.77,118.36,94.79,118.22,95.08Z" transform="translate(-34.06 -17.91)"/><path class="cls-45" d="M117.62,95.49Z" transform="translate(-34.06 -17.91)"/><path class="cls-45" d="M117.27,95.83c-.12,0,2,.4,1.44-.29C118.18,95.58,117.32,95.84,117.27,95.83Z" transform="translate(-34.06 -17.91)"/><path class="cls-45" d="M118.55,96c-.31.17.86.33.72-.07s-.72.07-.72.07S118.57,96,118.55,96Z" transform="translate(-34.06 -17.91)"/><path class="cls-45" d="M117,96.44c.32-.18-.69.31-.63.24a1,1,0,0,0,0,.19c.07.6,1.59-.07,1.5-.25.07.14-.36,0-.28,0,.17-.26.28,0,.38-.35C117.7,96.28,117.15,96.26,117,96.44Zm-.25.7Z" transform="translate(-34.06 -17.91)"/><path class="cls-45" d="M110.73,97a3.41,3.41,0,0,0,1.92-.25c-.54.33-.21.2-.6.43-.13.21,1.13.14,1.24.23-.2,0-1.39-.08-1.42.18s.56.14.68.14c.07.35,3.37.23,3.34-.24,0-.24-.48-.12-.52-.27s.94-.73.95-.78c0-.47-1.46.53-1.55.58,0-.16.28-.46-.16-.46.07,0-.17.24-.37.21C115.05,96.15,110.64,97,110.73,97Zm1.67.14Zm2.79.52Zm-2.44-1Z" transform="translate(-34.06 -17.91)"/><path class="cls-45" d="M115.33,97.92c-.29.33,0,.06,0,0Z" transform="translate(-34.06 -17.91)"/><path class="cls-45" d="M115.77,97.83Z" transform="translate(-34.06 -17.91)"/><path class="cls-45" d="M116.18,97.34Z" transform="translate(-34.06 -17.91)"/><path class="cls-45" d="M116.76,96.06c.43.22-.17-.11,0,0Z" transform="translate(-34.06 -17.91)"/><path class="cls-45" d="M113.08,95.8c0,.18.77-.15.91,0-.08,0-.32,0-.27.15s.59-.18.58-.2-.19.09-.26.05a0,0,0,0,0,0,0c.09,0,.27-.18.37-.15-.06,0-.09.16,0,.15s0,0,0,.07-.5.08-.53.15a6.55,6.55,0,0,0,1.17,0c0,.19-.7,0-.74.13,0,0,2.56.14,2.56-.35,0-.16-.44,0-.54-.08s.26-.14.2-.21c-.92.44-.73.11-1.63.07,0,0,.42-.21.39-.27a5,5,0,0,0-2.24.51Zm1.76-.2Zm-.12,0Z" transform="translate(-34.06 -17.91)"/><path class="cls-45" d="M115.21,95.54c.42,0,.19-.17,0,0Z" transform="translate(-34.06 -17.91)"/><path class="cls-45" d="M116,95.4c.14,0,1.19-.25,1.13-.38s-.89,0-.92.08l-.21.3Z" transform="translate(-34.06 -17.91)"/><path class="cls-45" d="M133.41,98c.16-.06,1.14-.49,1.14-.5-.32,0-.67,0-1,0h1.17c.4,0-.64-.88-.66-.9a.85.85,0,0,1,.39,0c-.42.28,0,.14.25.35-.15,0,.23-.18.21-.27s-.37-.09-.3-.13.55-.06.71-.15c0,.09.42-.26.43-.21a2.89,2.89,0,0,1-.29-.57c-.07-.31.62.19.45.19s.21-.35.22-.32c-.06-.26-.3,0-.42-.16,0,0,.3.09.29,0,0-.37-.56,0-.6,0,.08-.17,2.2-1.23,2.39-1-.73-.73-2.27.63-2.63,0a4,4,0,0,0,.87-.14c0-.36-2.41-.06-2.46-.07s.29,0,.29-.12c0-.32-2.82.36-3,.15,0,0-.06-.08-.11-.08s.56.32.54.27-1.65-.22-1,0c-.09,0-.88,0-.82,0a11.47,11.47,0,0,0-3.16.37c0,.12.42,0,.45,0,.12.39-2.19.18-2.2.52a3.33,3.33,0,0,0,.54.19c-.15,0-.47-.09-.51.08-.13.69,2.45,0,2.47.41,0,.27-.07.8.2.67,0,.08-.51.47-.41.57s.44,0,.58-.11c0,.2.08.35.34.3,0,0,0,.1,0,.1-.58.09-.66-.44-1,.3-.11.21.69.1.75,0l0-.06s-.22-.11-.27-.15a2.16,2.16,0,0,1,.36,0c-1.65,0-.6,2.26-.85,2.62s1.06.85,1.27.85c0,0,2.75-2.06,2.83-2.12.44-.38.89-.52,1.1-.83A1.75,1.75,0,0,0,133.41,98Zm-8.19-2.65s.13,0,0,0Z" transform="translate(-34.06 -17.91)"/><path class="cls-45" d="M135.85,96.12c.26.06.29-.22,0,0Z" transform="translate(-34.06 -17.91)"/><path class="cls-45" d="M136,95c.29-.13-.1,0,0,0Z" transform="translate(-34.06 -17.91)"/><path class="cls-45" d="M136,95.22Z" transform="translate(-34.06 -17.91)"/><path class="cls-45" d="M136.17,95.28c0,.06.32,0,0,0Z" transform="translate(-34.06 -17.91)"/><path class="cls-45" d="M136.22,95Z" transform="translate(-34.06 -17.91)"/><path class="cls-45" d="M136.29,95.05Z" transform="translate(-34.06 -17.91)"/><path class="cls-45" d="M136.48,94.91Z" transform="translate(-34.06 -17.91)"/><path class="cls-45" d="M135.8,99.4c.73.27.26-.77.35-.72a2.57,2.57,0,0,0-1.72.36c-.18-.38-1-.24-.89,0s.48-.08.58,0a3.16,3.16,0,0,1-.49.15c-.15.21.37.06.4.06s0,.19.07.12c0,.1-.32.13-.24.24.37.5,1.57-.35,1.94-.2Z" transform="translate(-34.06 -17.91)"/><path class="cls-45" d="M137.94,100.05c-.29.33-.24.29,0,0Z" transform="translate(-34.06 -17.91)"/><path class="cls-45" d="M142.35,94.83c0,.19.22.21,0,.27.21.13.89-.09.94,0s-.45.07-.4.22c.15.39,2.46-.19,2.44,0,0-.08-1-.19-1-.38.22,0,1.27.14,1.34-.17a8.6,8.6,0,0,0-1.91-.14.36.36,0,0,0,0,.09c0,.09.41.12.4.15s-1.32,0-1.31,0c.21,0-.48-.25-.54,0Zm1.84.07c.29-.25,0,.14,0,0Z" transform="translate(-34.06 -17.91)"/><path class="cls-45" d="M145.67,95Z" transform="translate(-34.06 -17.91)"/><path class="cls-45" d="M145.93,95.06c.66-.31,0,0,0,0Z" transform="translate(-34.06 -17.91)"/><path class="cls-45" d="M146.71,94.67Z" transform="translate(-34.06 -17.91)"/><path class="cls-45" d="M145.8,94.69c.22,0-.12,0,0,0S145.8,94.68,145.8,94.69Z" transform="translate(-34.06 -17.91)"/><path class="cls-45" d="M144.25,96.13Z" transform="translate(-34.06 -17.91)"/><path class="cls-45" d="M145.51,95.54c-.26.18,0,0,0,0Z" transform="translate(-34.06 -17.91)"/><path class="cls-45" d="M137.7,97.3c.46-.14.06-.17,0,0Z" transform="translate(-34.06 -17.91)"/><path class="cls-45" d="M139.13,100.83Z" transform="translate(-34.06 -17.91)"/><path class="cls-45" d="M137.43,101.91c0,.07.54-.49.43-.57s-.4.5-.43.57S137.43,101.89,137.43,101.91Z" transform="translate(-34.06 -17.91)"/><path class="cls-45" d="M138,101.59s-.66.38-.45.55l0,0c.1,0,.15-.22.24-.27s-.16.72.11.16c.11.07-.33.24-.28.32s0-.08.16.17c0,.07.28-.21.29-.21s.14.4.49.56c-.08.34-.61.23-.61.34s.08.13.23.17c0,.08-.35.31-.33.35s.51.12.65.09c-.2.17-.69.18-.87.46-.3.46,3.47-1.51,1.79-1a8.19,8.19,0,0,1-.43-1.65c-.08-.23-.52.09-.61,0,0,0,.59-.49.47-.56l-.11,0A7.56,7.56,0,0,0,138,101.59Z" transform="translate(-34.06 -17.91)"/><path class="cls-45" d="M137.64,103.48c.6-1-.52-1.17-.52-.73a1.15,1.15,0,0,1-.52.11s-.14,1-.2.91c.19.27,1.16-.14,1.24-.29Zm-.86-.23Z" transform="translate(-34.06 -17.91)"/><path class="cls-45" d="M138.05,102.94c.27.13,0,0,0,0Z" transform="translate(-34.06 -17.91)"/><path class="cls-45" d="M135.65,101.67Z" transform="translate(-34.06 -17.91)"/><path class="cls-45" d="M141.88,107.57s-.63.89-.08.89.1-1.51.2-1.51c-.48,0-.1.59-.12.62S141.89,107.56,141.88,107.57Z" transform="translate(-34.06 -17.91)"/><path class="cls-45" d="M139.92,108.29Z" transform="translate(-34.06 -17.91)"/><path class="cls-45" d="M140.42,108.14h0S140.4,108.14,140.42,108.14Z" transform="translate(-34.06 -17.91)"/><path class="cls-45" d="M139.48,108.52Z" transform="translate(-34.06 -17.91)"/><path class="cls-45" d="M145.46,108.65h0S145.48,108.65,145.46,108.65Z" transform="translate(-34.06 -17.91)"/><path class="cls-45" d="M146.15,109c.4.12-.7-.69-.78-.12s1.44.28.78.12C146.19,109,146.14,109,146.15,109Z" transform="translate(-34.06 -17.91)"/><path class="cls-45" d="M134.69,112.21c.31-.13-.81.37,0,0C134.73,112.19,134.68,112.21,134.69,112.21Z" transform="translate(-34.06 -17.91)"/><path class="cls-45" d="M134.05,112.47c-.14.1-.11.32,0,0Z" transform="translate(-34.06 -17.91)"/><path class="cls-45" d="M133.77,112.47c-.1-.23-.11.06,0,0Z" transform="translate(-34.06 -17.91)"/><path class="cls-45" d="M133.32,112.16Z" transform="translate(-34.06 -17.91)"/><path class="cls-45" d="M133.49,112.57Z" transform="translate(-34.06 -17.91)"/><path class="cls-45" d="M133.39,112.65h0S133.38,112.67,133.39,112.65Z" transform="translate(-34.06 -17.91)"/><path class="cls-45" d="M133.68,110.85c.34,0-.26,0,0,0Z" transform="translate(-34.06 -17.91)"/><path class="cls-45" d="M133.48,110.57h0C133.55,110.56,133.45,110.58,133.48,110.57Z" transform="translate(-34.06 -17.91)"/><path class="cls-45" d="M131.37,108.91Z" transform="translate(-34.06 -17.91)"/><path class="cls-45" d="M130.84,108.55c-.08-.27,0,.11,0,0Z" transform="translate(-34.06 -17.91)"/><path class="cls-45" d="M130.64,108.61Z" transform="translate(-34.06 -17.91)"/><path class="cls-45" d="M130.76,116.55c-.35-.09.16,0,0,0Z" transform="translate(-34.06 -17.91)"/><path class="cls-45" d="M131.06,116.74c-.21.27.05,0,0,0Z" transform="translate(-34.06 -17.91)"/><path class="cls-45" d="M131.51,116.92c-.17-.15.24.19,0,0Z" transform="translate(-34.06 -17.91)"/><path class="cls-45" d="M131.43,116.81c0-.32,0,0,0,0Z" transform="translate(-34.06 -17.91)"/><path class="cls-45" d="M131.3,117.38c-.1-.55.06.38,0,0C131.29,117.35,131.3,117.39,131.3,117.38Z" transform="translate(-34.06 -17.91)"/><path class="cls-45" d="M131.42,117.09Z" transform="translate(-34.06 -17.91)"/><path class="cls-45" d="M131,117.37c-.3-.2.17.13,0,0Z" transform="translate(-34.06 -17.91)"/><path class="cls-45" d="M156.74,118.27c-.59-.3.06,0,0,0S156.75,118.27,156.74,118.27Z" transform="translate(-34.06 -17.91)"/><path class="cls-45" d="M170.38,116.79c.74-.79,1,3.33.81,3.33.05,0,.08-.2.09-.23s1.7,3.28,2.13,2.78c.2-.21-3-4.76-1.6-4.76.39,0,1.71,1.86,1.66,1.89,2.51-1.42-1.4-4.89,1-4.89-.1,0,0,.47.06.52s4.53-2.28,3.23-3.77c.07.08-.54,0-.53,0,.71-.11-.16-1-.42-1.21-1.11-1,.11-.68.11-1.25a1.08,1.08,0,0,0,0-.19c-.07-.08-2-.08-1.79-.55a.36.36,0,0,1,0-.09c.42,0,.57-.75.93-.63.17,0,0,.81.15.81,1.85,0,1.2.2,2.17,1.66.72,1.34.24-3.29-.38-2.08,1.13-1.59,1.86-1.83,1.28-4.46.8.13,1.12,2.2,1.72,2.2-.46,0,.67-.41.41-.09a7.42,7.42,0,0,1-.89-1.13c.12,0,.59.21.6.18a24.26,24.26,0,0,0-2.2-2.08h0c-.18,0,.24.31.27.35-.16.23.08,0,.05.47-.65-.63-1.24-.93-1.78-.61a.06.06,0,0,1,0-.06c-.07.14.41-.71-.14-.44-.24.1.22.22.16.32.08-.13-.64-.14-.74-.16.68-.84.6-2,2-1.53a10.71,10.71,0,0,0,2.05,0c.17-1.74.32.32,1.24-.77,0-.06-.28-.25-.32-.3.16.13.49.26.65.54,0,0-.61,1.2-.64,1.06.11.69,1.83,2.46,2,2.73s.35-.77.19-1c0,0,.38-.1.37,0,0-.09-.21-1.14-.43-1.14,0,0,.36.19.26,0-.33-.65-1.09-.46-1.34-1.19-.09-.25,1.45,0,1.74,0-.54,0,1.49-1.41,1.3-.85.15-.44-1.21-.53-1.38-.78.14,0,.49.07.49-.18,0-.08-.41-.32-.38-.32s.09.1.11,0c.08.3,2.39.65,2.42.56s-.37-.3-.41-.33c.81-.53-1.42-.53-1.4-.58a1,1,0,0,0,.27.19,25.39,25.39,0,0,0-5.31-1.14s.63.46.63.4c-.23.38-6.4-1-7.55-1,0-.06.18,0,.2,0a8.18,8.18,0,0,0-1.31-.12c0,.14-.18,0-.21.14,0-.1.48.28.49.29-.36,0-1.3-.32-1.8-.15-.06,0,.08.3.1.38-.24-.07-2.72-1.44-2.88-.9,0,.08.26.2.3.26-.88-.27-2.58.06-3.05-.33.06,0,.34,0,.34-.12,0-.26-.75.15-.75.17s.2,0,.26,0c0,.16-.89,0-.89.25,0-.31,1.17-.46,1.12-.73-.18-.83-3.35-.41-3.24-.38a9.12,9.12,0,0,0-1.38.07c-.17.06-1.62.34-1.62.53s.51.08.58.11c-.25.16-1.3,0-1.33.25s.89.36.89.43a3.18,3.18,0,0,1-1.14-.22s.22,0,.24,0c.13-.28-.67.18-.55.17s.3,0,.4.06c-.08,0-.45-.07-.48,0s.87.13.5.17c-.22,0-1-.35-1-.48s0,.66-.13.44a1.34,1.34,0,0,0,1.21.71s-.39,0-.42.11.33,1.28-.73.71c1.31,0-.51-2.42-1.09-2.2-1,.4.5,1.6.49,1.63a18.47,18.47,0,0,0-2.72-.61,7.89,7.89,0,0,0,.79.35c0,.12-.32.06-.17.18,0,0,0,0,0,0l-.11,0c.1,0-.21-.3-.25-.33s-.94.68-.94.16c0-.13-2,1-2.15.49.06-.1.36,0,.37-.12s-.87-.3-.85-.27.4.65.41.6-.09.14,0,.23c-.79-.55-.78.34-.83.45S149,99,149,99.06s-.11.08-.13.11.42.25.46.29c-.55.28-1.16-.67-1.47-.91.48-.15,3.13.46,1.51-.43a5.72,5.72,0,0,0-2.48-.54s.36-.11.35-.16c-.06-.3-.72,0-.74,0,.27-.44-.59.09-.69.1s.24-.23.18-.3a4.47,4.47,0,0,1-1,.14s.18.08.21.14c-1-.11-1.36.32-2.24.7a.17.17,0,0,0,0,.1c0,.06.45-.16.54-.18,0,1.06-2,1.46-2,1.82,0-.23.19,3.44.91,1.14.38,1.2.22.94.15,1.62,0,0,.13.1.17.1,1,0,1.33-1.2,1.94-1.82.06-.05-.93-.73-.24-1.07s1.55-.63,1.67-.71c-.31,0-1.42.83-.88,1.37s1.53.2,2.25.29c-.38.09-2,.13-2.08.58,0,0,.1.18.08.18a2,2,0,0,1,.64-.16c0,.14,0,.28,0,.41-.7.21-2.34,1.72-3.59,1.1-.39.29,0-1.21-.07-1.3-.61-.65-.48,1.28-.48,1.29a30,30,0,0,1-3.11,1.5c.65,0-1,.81-.91.49-.12.32,2.41,1.81-.26,1.81-1.48,0-1.35,1.14-1.3,2.49,1.47.52,5.88-3.25,5.88-2.2,0,.25,3.45,1.69.84,1.69,0,0-.1.11-.1.11,0,1.55,2.05-.94,1.38-.94.1,0,.38.27.42.25A12.54,12.54,0,0,1,142.9,106c.09,0,.15-.1.22-.1.37,0,3.14,3.4,3.45,3,0,0,.2-.32.17-.2s-.87-.89-.71-.89,1.17-.36,1.22,0c0,.06-.26.38-.23.47.13.31.3-.15.3-.15a.43.43,0,0,0,0,.25c0,.11-.52,0-.3.26,0,0,.37.11.43.08a2.09,2.09,0,0,0-.1.58,3.17,3.17,0,0,1,.36-.21c0,.12-.2.19-.08.4-.21-.39,2.53.09,2.53-.34.52,2.07-1.23,2.29-2.9,2-.24,0-3.17-.34-2.34.39a7.86,7.86,0,0,0-2.43-1.2c-.55-.14.27-.93,0-1.28-.64-1-5.61,1.08-6.17,1.45-1.31.82-4.29,6.1-3,7.53.54.6,1.09,1.58,1.79,2.36,1.29,1.63,3.12.36,4.68.17,2.57-.26,2.62,3.82,3.33,5.76.6,1.57-1,2.74.14,4.47.8,1.18.8,3.59,1.46,4.62,1.94,3,5-3.74,5.58-4.63-.16-.93,3.74-3.94,1.36-5.5-.61-.38,4.82-5.65,4-6.8a14.8,14.8,0,0,1-2.83.16c.69-1.16-3.95-5-3.57-6.86.08.17.38.79.59.79s.14-.44.15-.54c.05.76,3.72,5.92,3.53,6.13,1.22-1.36,4.81-1.35,4.75-3.58,0,.11-1.69-1.41-1.35-1.41-.43,0-.67.82-1.29.82-.41,0,.08-.85-.37-.85-.11,0-.07.33-.09.35s-1.63-2-.57-1.79c.18,0,1.47,1.84,2,1.25s4.2,1.59,5,1.42c-.07.28-.43.11-.48.21s1.14,1.23,1.14,0c-.63.17,2.44,6.77,2.72,4.88,0-.32-.16-2.41.41-2.63a5.66,5.66,0,0,0,2-2.19c0,.26,1,.07,1-.18.28.94,1.49,2.75,2,2.26Zm7.21-4.67ZM173.45,97c.35-.15.13-.06,0,0Zm-14.82,1.33c-.15,0-.32-.35-.52-.44C158.39,97.88,158.6,98.29,158.63,98.29Z" transform="translate(-34.06 -17.91)"/><path class="cls-45" d="M182.28,100.54Z" transform="translate(-34.06 -17.91)"/><path class="cls-45" d="M174.85,115.73h0S174.83,115.75,174.85,115.73Z" transform="translate(-34.06 -17.91)"/><path class="cls-45" d="M183.27,101.13h0S183.31,101.15,183.27,101.13Z" transform="translate(-34.06 -17.91)"/><path class="cls-45" d="M155.4,128.59c0-.06-.14-1.16-.31-1.16.57,0-1.92,1.68-1.8,1.49-.11.18-.39,3.43-.15,3.46,1.7.22,1.76-2.51,2-3.53,0,.09.5.15.25-.26C155.37,128.53,155.44,128.65,155.4,128.59Z" transform="translate(-34.06 -17.91)"/><path class="cls-45" d="M165.71,120c-.09-.18-.28-.69-.55-.69-1.06,0,1.62,2.69.55.69C165.71,119.94,165.74,120,165.71,120Z" transform="translate(-34.06 -17.91)"/><path class="cls-45" d="M169.21,118.51c-.12.19.31-.13.15-.57-.07-.18-.15.58-.15.57Z" transform="translate(-34.06 -17.91)"/><path class="cls-45" d="M169.32,119c-.09-.35.07.29,0,0Z" transform="translate(-34.06 -17.91)"/><path class="cls-45" d="M169.36,119.49c0,.26,0,0,0,0Z" transform="translate(-34.06 -17.91)"/><path class="cls-45" d="M169.67,119.93c-.07-.27.1.42,0,0Z" transform="translate(-34.06 -17.91)"/><path class="cls-45" d="M169.76,120.26c0,.07.15.28,0,0Z" transform="translate(-34.06 -17.91)"/><path class="cls-45" d="M170.6,122Z" transform="translate(-34.06 -17.91)"/><path class="cls-45" d="M171.08,122.5c-.41-.43.59.57,0,0C171.08,122.49,171.11,122.52,171.08,122.5Z" transform="translate(-34.06 -17.91)"/><path class="cls-45" d="M171,122.31c0-.21,0-.24,0,0Z" transform="translate(-34.06 -17.91)"/><path class="cls-45" d="M171.4,123.11c-.05-.44.06.48,0,0C171.4,123.1,171.41,123.14,171.4,123.11Z" transform="translate(-34.06 -17.91)"/><path class="cls-45" d="M171.4,123Z" transform="translate(-34.06 -17.91)"/><path class="cls-45" d="M171.57,123.39c-.3-.22.3.14,0,0Z" transform="translate(-34.06 -17.91)"/><path class="cls-45" d="M171.92,123.91c-.78-.39.66.32,0,0Z" transform="translate(-34.06 -17.91)"/><path class="cls-45" d="M173.51,125.14s.64-1.26.65-1.22a4.75,4.75,0,0,1-.4-.39c0,.08,0,0-.09,0s-.15.15-.13.19.25.1.28.28c-.18,0,0-.06-.11-.13-1-1-1.62-2.54-3.48-2.94.33.43,2.66,4.46,3.28,4.21C173.53,125.13,173.5,125.15,173.51,125.14Z" transform="translate(-34.06 -17.91)"/><path class="cls-45" d="M173.3,123.12Z" transform="translate(-34.06 -17.91)"/><path class="cls-45" d="M174.36,124.22Z" transform="translate(-34.06 -17.91)"/><path class="cls-45" d="M175.06,126c.33.31,1.86.29,1.66.4a1.46,1.46,0,0,0,.25-.21c0-.09-.9-.44-.94-.4s.5,0,.47-.13c-.15-.46-3.12-.21-3-.21-.15,0,1.56.56,1.55.55S175,125.93,175.06,126Z" transform="translate(-34.06 -17.91)"/><path class="cls-45" d="M177.61,126.36c.45.07-.48-.37-.5-.31s-.2.27-.12.31.37,0,.62,0C177.67,126.37,177.59,126.35,177.61,126.36Z" transform="translate(-34.06 -17.91)"/><path class="cls-45" d="M177.84,126.29c.22.39-.47-.77,0,0C177.85,126.3,177.83,126.27,177.84,126.29Z" transform="translate(-34.06 -17.91)"/><path class="cls-45" d="M179,126.31c.24-.1-.61-.14-.79,0a1.33,1.33,0,0,0,.79,0C179.09,126.28,179,126.31,179,126.31Z" transform="translate(-34.06 -17.91)"/><path class="cls-45" d="M178,126.64c.05,0,.66.34.62.11C178.51,126.21,177.9,126.64,178,126.64Z" transform="translate(-34.06 -17.91)"/><path class="cls-45" d="M179.43,126.85c.32.05,1-.52,1.32-.7-.37,0-1.59.64-1.32.7C179.45,126.86,179.41,126.85,179.43,126.85Z" transform="translate(-34.06 -17.91)"/><path class="cls-45" d="M179.84,122.9c.09-.07.55-.57.22-.57-1.1,0-3,1.64-1.86,2.74a.14.14,0,0,0,.08.05c.08,0,.17-.05.27-.05a4,4,0,0,0,0-1c.07-.06.19-.08.24-.13s0,.85.32.85a8.74,8.74,0,0,1,.51-1.64,2,2,0,0,0-.94.26c-.36-1.26.7-.12,1.18-.54Z" transform="translate(-34.06 -17.91)"/><path class="cls-45" d="M179.44,123.59Z" transform="translate(-34.06 -17.91)"/><path class="cls-45" d="M180.13,123.71h0S180.12,123.71,180.13,123.71Z" transform="translate(-34.06 -17.91)"/><path class="cls-45" d="M179.23,125c.21.27.24-.19.26-.32,0-.34-.4.36-.34.31Z" transform="translate(-34.06 -17.91)"/><path class="cls-45" d="M179.09,124.88Z" transform="translate(-34.06 -17.91)"/><path class="cls-45" d="M180.94,123.62c.4-.23-.08,0,0,0Z" transform="translate(-34.06 -17.91)"/><path class="cls-45" d="M180.86,123.28c.14-.33.12.29.21-.44.08,0,.26.09.31,0-.2-.46-.09-.3-.27-.71C180.94,122.07,180.84,123.48,180.86,123.28Z" transform="translate(-34.06 -17.91)"/><path class="cls-45" d="M181.3,122Z" transform="translate(-34.06 -17.91)"/><path class="cls-45" d="M180.85,124.32Z" transform="translate(-34.06 -17.91)"/><path class="cls-45" d="M181.2,124.21a4.58,4.58,0,0,1,.79.2c.16-.43-.92-.57-.79-.2C181.2,124.22,181.19,124.19,181.2,124.21Z" transform="translate(-34.06 -17.91)"/><path class="cls-45" d="M181.92,123.6c-.44-.21.16.09,0,0C181.91,123.6,181.92,123.61,181.92,123.6Z" transform="translate(-34.06 -17.91)"/><path class="cls-45" d="M182,123.19c.57-.34-.19.12,0,0C182,123.17,182,123.19,182,123.19Z" transform="translate(-34.06 -17.91)"/><path class="cls-45" d="M187.4,125.21c-2.23-1-3.9-1.85-5.37-2,0,0-.06.23-.08.1.24.11.64.71,1,.54-.13.06-.5,0-.56.14,0-.07.29.52.32.52s.21-.26.27-.35c0,.7,1.12.8,1.12,1.9,0,.4,2.5,0,1.83,0,.88-.59,1.79,1.5,2.37.93-.07.07.14-.2.14-.17,0-.24-1.47-.84-1.19-1.3,0,0,.74,0,.14-.32Z" transform="translate(-34.06 -17.91)"/><path class="cls-45" d="M183.49,123.56Z" transform="translate(-34.06 -17.91)"/><path class="cls-45" d="M183.05,125.23Z" transform="translate(-34.06 -17.91)"/><path class="cls-45" d="M182.3,125.68a.49.49,0,0,0-.4.45c-.08.2.34-.43.4-.45S182.29,125.68,182.3,125.68Z" transform="translate(-34.06 -17.91)"/><path class="cls-45" d="M181.52,126Z" transform="translate(-34.06 -17.91)"/><path class="cls-45" d="M179.8,126.2c.44-.49-.06,0,0,0Z" transform="translate(-34.06 -17.91)"/><path class="cls-45" d="M179.24,126.2c0-.07.53,0,.46-.12C179.43,125.77,179.16,126.23,179.24,126.2Z" transform="translate(-34.06 -17.91)"/><path class="cls-45" d="M187.79,125.18c.81.77,1.29-.69,1.27-.69s-.11,0-.2,0c.08,0-.88.89-1.07.72C187.83,125.22,187.78,125.16,187.79,125.18Z" transform="translate(-34.06 -17.91)"/><path class="cls-45" d="M187.57,125.17c.26,0-.21,0,0,0Z" transform="translate(-34.06 -17.91)"/><path class="cls-45" d="M187.21,123.74c0,.05.49.11,0,0Z" transform="translate(-34.06 -17.91)"/><path class="cls-45" d="M188.43,124c.26.2-.38-.34,0,0C188.43,124,188.41,124,188.43,124Z" transform="translate(-34.06 -17.91)"/><path class="cls-45" d="M188.7,124.08c.13.08.66.72.58.72.69,0-1.22-1.14-.58-.72Z" transform="translate(-34.06 -17.91)"/><path class="cls-45" d="M189.81,125.17c0,.06.51.64.41.26s-.27-.65-.41-.26C189.8,125.19,189.81,125.16,189.81,125.17Z" transform="translate(-34.06 -17.91)"/><path class="cls-45" d="M190.44,125.6c.6.61-.37-.36,0,0C190.45,125.62,190.39,125.55,190.44,125.6Z" transform="translate(-34.06 -17.91)"/><path class="cls-45" d="M190.37,125.93Z" transform="translate(-34.06 -17.91)"/><path class="cls-45" d="M190.71,125.92Z" transform="translate(-34.06 -17.91)"/><path class="cls-45" d="M191.05,125.88c.33.79-.15-.37,0,0Z" transform="translate(-34.06 -17.91)"/><path class="cls-45" d="M191.41,126.45Z" transform="translate(-34.06 -17.91)"/><path class="cls-45" d="M191.7,126.27c-.09.78-.06-.36,0,0C191.7,126.29,191.69,126.19,191.7,126.27Z" transform="translate(-34.06 -17.91)"/><path class="cls-45" d="M191.93,126.76c0,.08.42.62,0,0Z" transform="translate(-34.06 -17.91)"/><path class="cls-45" d="M193.58,129.18c0-.11-.06-.75-.24-.75s.1.75.24.75Z" transform="translate(-34.06 -17.91)"/><path class="cls-45" d="M191.25,126.32Z" transform="translate(-34.06 -17.91)"/><path class="cls-45" d="M188.3,126.11Z" transform="translate(-34.06 -17.91)"/><path class="cls-45" d="M189.26,126.4Z" transform="translate(-34.06 -17.91)"/><path class="cls-45" d="M188.46,126.76Z" transform="translate(-34.06 -17.91)"/><path class="cls-45" d="M188.39,126.58s-.11,0,0,0Z" transform="translate(-34.06 -17.91)"/><path class="cls-45" d="M188.31,126.33Z" transform="translate(-34.06 -17.91)"/><path class="cls-45" d="M188.61,126.22Z" transform="translate(-34.06 -17.91)"/><path class="cls-45" d="M192.19,130.44c-.07-.11-.27-.69-.14-.69-.51,0,.3,1.84.76,1.84S192.22,130.54,192.19,130.44Z" transform="translate(-34.06 -17.91)"/><path class="cls-45" d="M197,129.52c-.22-.2-.42-.06-.52.16,0,.37.74,0,.52-.16C197,129.5,197.05,129.53,197,129.52Z" transform="translate(-34.06 -17.91)"/><path class="cls-45" d="M197.59,129s-.84.24-.45.31A.62.62,0,0,0,197.59,129Z" transform="translate(-34.06 -17.91)"/><path class="cls-45" d="M176.62,124.39c0,.12.53.15.54.15a8.87,8.87,0,0,1,1-1.91c0,.09-.74-1.82-.33-1.5,0,0,.44.06.39-.1,0,0-1.07-.79-.82-.82-.36,0-1.61,1.89-2.35,1.93a2.32,2.32,0,0,0,.13,2c-.11-.16.87.23.56.23.23,0,.8-.41.88,0C176.62,124.4,176.61,124.37,176.62,124.39Z" transform="translate(-34.06 -17.91)"/><path class="cls-45" d="M177.6,120.37Z" transform="translate(-34.06 -17.91)"/><path class="cls-45" d="M177.88,120.29c0,.15,0,.16,0,0Z" transform="translate(-34.06 -17.91)"/><path class="cls-45" d="M177.54,119.58c-.48.51,1-.39.55-.85.1.09-.45.74-.55.85Z" transform="translate(-34.06 -17.91)"/><path class="cls-45" d="M178.15,118.75c.25-.67-.16-.2,0,0Z" transform="translate(-34.06 -17.91)"/><path class="cls-45" d="M178.66,118.06c-.22-.8.25.93,0,0C178.65,118,178.66,118.07,178.66,118.06Z" transform="translate(-34.06 -17.91)"/><path class="cls-45" d="M179,118.52c-.18-.19,0,.6-.05.6.29,0,.11-.19.36-.27a.78.78,0,0,0-.15.66c-.06-.08.3.12.17.12.19,0,.39-.84.31-.84-.2.17-.37,0-.64-.27C179,118.5,179,118.52,179,118.52Z" transform="translate(-34.06 -17.91)"/><path class="cls-45" d="M179.74,119.15c-.43.58,0,0,0,0Z" transform="translate(-34.06 -17.91)"/><path class="cls-45" d="M180.38,120.65c-.2-.28.21-1.58-.26-1.58.23,0-.43.82-.49.87-.19-.72-.8.51-.57.51s.49-.36.48-.38c.32.23.16.9.66.9s-.48-1.18.18-.32Z" transform="translate(-34.06 -17.91)"/><path class="cls-45" d="M179.9,119.23c.3,0-.12-.5-.26-.53S179.81,119.23,179.9,119.23Z" transform="translate(-34.06 -17.91)"/><path class="cls-45" d="M179.6,118.4c.16.17.34.51.58.51.54,0-1-.94-.58-.51Z" transform="translate(-34.06 -17.91)"/><path class="cls-45" d="M178.61,116.05c-1.25,0-.36,1.79.47,2,.14-.07-.08-.2-.08-.28a2.18,2.18,0,0,1,.48.48c-.24-.27-.23.29-.23.32.26-.24.15.11.31,0S178.12,116.05,178.61,116.05Z" transform="translate(-34.06 -17.91)"/><path class="cls-45" d="M178.88,117.91c-.27-.15.23.15,0,0Z" transform="translate(-34.06 -17.91)"/><path class="cls-45" d="M179.63,117.86c.07-.46,0,.39,0,0Z" transform="translate(-34.06 -17.91)"/><path class="cls-45" d="M179.06,118.41Z" transform="translate(-34.06 -17.91)"/><path class="cls-45" d="M178.88,118.22Z" transform="translate(-34.06 -17.91)"/><path class="cls-45" d="M177.3,120Z" transform="translate(-34.06 -17.91)"/><path class="cls-45" d="M179.05,120.61Z" transform="translate(-34.06 -17.91)"/><path class="cls-45" d="M178.68,120.78Z" transform="translate(-34.06 -17.91)"/><path class="cls-45" d="M178.9,120.76Z" transform="translate(-34.06 -17.91)"/><path class="cls-45" d="M178.62,120.94Z" transform="translate(-34.06 -17.91)"/><path class="cls-45" d="M178.43,121Z" transform="translate(-34.06 -17.91)"/><path class="cls-45" d="M178.15,121.25Z" transform="translate(-34.06 -17.91)"/><path class="cls-45" d="M178.59,120.62Z" transform="translate(-34.06 -17.91)"/><path class="cls-45" d="M180.64,121.3Z" transform="translate(-34.06 -17.91)"/><path class="cls-45" d="M180.49,120.87Z" transform="translate(-34.06 -17.91)"/><path class="cls-45" d="M180.17,121.15Z" transform="translate(-34.06 -17.91)"/><path class="cls-45" d="M180.14,121.37Z" transform="translate(-34.06 -17.91)"/><path class="cls-45" d="M180.33,121.71Z" transform="translate(-34.06 -17.91)"/><path class="cls-45" d="M182.44,110Z" transform="translate(-34.06 -17.91)"/><path class="cls-45" d="M180.29,111.69Z" transform="translate(-34.06 -17.91)"/><path class="cls-45" d="M176.78,115.29Z" transform="translate(-34.06 -17.91)"/><path class="cls-45" d="M177.61,114.26s.38.7.38.48.31-1.23,0-1.23-.5.44-.38.75C177.62,114.29,177.6,114.24,177.61,114.26Z" transform="translate(-34.06 -17.91)"/><path class="cls-45" d="M179.43,110.71Z" transform="translate(-34.06 -17.91)"/><path class="cls-45" d="M179.68,110.37Z" transform="translate(-34.06 -17.91)"/><path class="cls-45" d="M179.86,111.18Z" transform="translate(-34.06 -17.91)"/><path class="cls-45" d="M180.35,109.46Z" transform="translate(-34.06 -17.91)"/><path class="cls-45" d="M182.88,106.59Z" transform="translate(-34.06 -17.91)"/><path class="cls-45" d="M183.73,105.24Z" transform="translate(-34.06 -17.91)"/><path class="cls-45" d="M183.69,105.05Z" transform="translate(-34.06 -17.91)"/><path class="cls-45" d="M183.59,104Z" transform="translate(-34.06 -17.91)"/><path class="cls-45" d="M180.84,106.05Z" transform="translate(-34.06 -17.91)"/><path class="cls-45" d="M180.94,106.12Z" transform="translate(-34.06 -17.91)"/><path class="cls-45" d="M181.63,108.79Z" transform="translate(-34.06 -17.91)"/><path class="cls-45" d="M182.31,110.08c.15,0,.16-.83.23,0h0c.41-.33-.27-2.6-.91-2.6.07,0-.21.12-.18.08a4.31,4.31,0,0,1-.08,1.69c-.15-.06,0-.33-.12-.3-.26.68-1.65.81-1.81,1.62,0,.26.48.29.47.29-.06.21.09.58.34.58s.1-1.28-.27-1.09c.4-.16,1-.24,1.15-.29s0,.46.37.46.07-.6.06-.57a1.56,1.56,0,0,0,.71.15S182.3,110.09,182.31,110.08Zm.11-1.42c.1.15-.14.06,0,0S182.41,108.67,182.42,108.66Z" transform="translate(-34.06 -17.91)"/><path class="cls-45" d="M181.1,110.41c.16-.42-.61-.11-.73.17l.39.26c-.16,0,.36-.46.34-.43S181.09,110.44,181.1,110.41Z" transform="translate(-34.06 -17.91)"/><path class="cls-45" d="M182.48,106.68A11,11,0,0,0,181,106s.34.76.39.82c-.32.14-.26.85.06.74a2,2,0,0,0,.22-.16c0-.13-.34-.14-.4-.26.29-.23,1.69.44,1.2-.44C182.47,106.66,182.49,106.68,182.48,106.68Z" transform="translate(-34.06 -17.91)"/><path class="cls-45" d="M182.76,106.3c0-.18-.31.67-.12.21.05-.12.54-.29.51-.47s-.37,0-.39.26Z" transform="translate(-34.06 -17.91)"/><path class="cls-45" d="M183.27,105.84c-.14.46.17-.41,0,0Z" transform="translate(-34.06 -17.91)"/><path class="cls-45" d="M183.63,105.43c0,.34.07-.17,0,0Z" transform="translate(-34.06 -17.91)"/><path class="cls-45" d="M183.74,104.65c.12-.09-.05,0,0,0Z" transform="translate(-34.06 -17.91)"/><path class="cls-45" d="M188.21,132.26c0,.32-.9-1.38-.9-.92a20.64,20.64,0,0,1-1.36-2.93,13.87,13.87,0,0,0-.23-1.53c-.3,0-.88,3.05-1.24,2.69-.67-.67-.87-2.18-.7-2a1.45,1.45,0,0,1-.12-.19c-.19,0-.06.26-.18.26.06,0-1.11-.54-1.15-.52s-.08,0-.16,0,.26.29.2.38-1.8.89-1.06.94c-.13.26-.36-.1-.49.19-.12-1.15-1.56.35-1.58.35-.19,0,0,.36,0,.4-.18-.12-.07,0-.14.17-.06-.1,0-.36-.09-.41a9.35,9.35,0,0,1-3.23,2.26s.05-.29,0-.27c-.07.42-.09,1.27-.18,1.59,0-.19-.44.19-.25.19,0,0-.08-.42-.17-.42,1.33,0-1.86,3.65,1.3,3.23,1.22-.17,2.23-.88,3.53-.88s1.21,1.26,1.3,1.26.68-.81.94-.81h0a10.88,10.88,0,0,1-.74.9c.08.2.64-.34.62-.37.35.56-.72.36-.79.56l0,.1c0,.13.65-.13.73-.19,1.07,3.11,6.36-.92,6.06-4Z" transform="translate(-34.06 -17.91)"/><path class="cls-45" d="M183.7,128.21c.08-.14-.25.39,0,0C183.72,128.18,183.69,128.23,183.7,128.21Z" transform="translate(-34.06 -17.91)"/><path class="cls-45" d="M181.56,127.46c.13,0,.74-.13.4-.31S181.51,127.46,181.56,127.46Z" transform="translate(-34.06 -17.91)"/><path class="cls-45" d="M176.27,130.7Z" transform="translate(-34.06 -17.91)"/><path class="cls-45" d="M177.42,130.23Z" transform="translate(-34.06 -17.91)"/><path class="cls-45" d="M179.37,127Z" transform="translate(-34.06 -17.91)"/><path class="cls-45" d="M178.91,126.88Z" transform="translate(-34.06 -17.91)"/><path class="cls-45" d="M182.9,138c.48-.08-.15,0,0,0Z" transform="translate(-34.06 -17.91)"/><path class="cls-45" d="M184,138.18a2.44,2.44,0,0,1-.86-.15c.05,0-1,1.73.67.68-.07.34.44-.57.19-.53Z" transform="translate(-34.06 -17.91)"/><path class="cls-45" d="M184.22,137.81c0,.08.18.54,0,0Z" transform="translate(-34.06 -17.91)"/><path class="cls-45" d="M188.34,140.5Z" transform="translate(-34.06 -17.91)"/><path class="cls-45" d="M188.39,140.39Z" transform="translate(-34.06 -17.91)"/><path class="cls-45" d="M188.07,140.23Z" transform="translate(-34.06 -17.91)"/><path class="cls-45" d="M194,137a4,4,0,0,0-.7,0c0-.16.05-.33.08-.46,0,.13-.27.13-.3.15s.3-.94,0-.94c0,0-.16,0-.18,0-.61.88-1.07,2.09-1.38,2.56a2.53,2.53,0,0,1,.14-.35,38.14,38.14,0,0,1-3.43,2.08s0,.09,0,.11C188.61,141.43,193.49,137,194,137Z" transform="translate(-34.06 -17.91)"/><path class="cls-45" d="M181.62,97.25c.1,0,.95.06.88-.11-.14-.36-1,0-.88.11S181.61,97.24,181.62,97.25Z" transform="translate(-34.06 -17.91)"/><path class="cls-45" d="M172.22,95.89c.15,0,1,.49,1.24.18A2.6,2.6,0,0,0,172.22,95.89Z" transform="translate(-34.06 -17.91)"/><path class="cls-45" d="M171.92,96.32c-.64-.32.22.9.64.24.1-.15-.63-.23-.64-.24Z" transform="translate(-34.06 -17.91)"/><path class="cls-45" d="M171.63,96.37Z" transform="translate(-34.06 -17.91)"/><path class="cls-45" d="M170.56,96.29c-.54-.29.25.14,0,0Z" transform="translate(-34.06 -17.91)"/><path class="cls-45" d="M169.77,95.86c.27.41-.13-.19,0,0C169.78,95.89,169.76,95.85,169.77,95.86Z" transform="translate(-34.06 -17.91)"/><path class="cls-45" d="M170.1,95.84c-.1.38,1.88.39,1.91.18a.33.33,0,0,0,0-.14c-.12-.27-1.89-.14-1.91,0S170.1,95.83,170.1,95.84Z" transform="translate(-34.06 -17.91)"/><path class="cls-45" d="M172.11,95.62Z" transform="translate(-34.06 -17.91)"/><path class="cls-45" d="M173.33,95.75Z" transform="translate(-34.06 -17.91)"/><path class="cls-45" d="M158.79,94.7c.4.11.23.19.59,0-.24.21,1.48.39,1.54.31.52-.7-2.68-.5-2.13-.35C158.82,94.7,158.78,94.69,158.79,94.7Z" transform="translate(-34.06 -17.91)"/><path class="cls-45" d="M161.11,95.19s1.06.11,1.17-.11c0-.06-1-.33-1.17.11Z" transform="translate(-34.06 -17.91)"/><path class="cls-45" d="M160.57,95.57Z" transform="translate(-34.06 -17.91)"/><path class="cls-45" d="M160.85,95.45Z" transform="translate(-34.06 -17.91)"/><path class="cls-45" d="M160.72,95.57Z" transform="translate(-34.06 -17.91)"/><path class="cls-45" d="M160.82,95.57Z" transform="translate(-34.06 -17.91)"/><path class="cls-45" d="M161.13,95.61Z" transform="translate(-34.06 -17.91)"/><path class="cls-45" d="M162.54,95.12Z" transform="translate(-34.06 -17.91)"/><path class="cls-45" d="M162.6,95.14Z" transform="translate(-34.06 -17.91)"/><path class="cls-45" d="M163.12,95.42Z" transform="translate(-34.06 -17.91)"/><path class="cls-45" d="M159.1,95.46Z" transform="translate(-34.06 -17.91)"/><path class="cls-45" d="M159.32,95.38Z" transform="translate(-34.06 -17.91)"/><path class="cls-45" d="M159.83,95.15Z" transform="translate(-34.06 -17.91)"/><path class="cls-45" d="M158.42,94.47Z" transform="translate(-34.06 -17.91)"/><path class="cls-45" d="M157.92,95.87Z" transform="translate(-34.06 -17.91)"/><path class="cls-45" d="M158.12,95.82Z" transform="translate(-34.06 -17.91)"/><path class="cls-45" d="M158.12,96Z" transform="translate(-34.06 -17.91)"/><path class="cls-45" d="M157.61,96.19Z" transform="translate(-34.06 -17.91)"/><path class="cls-45" d="M157.08,96.52Z" transform="translate(-34.06 -17.91)"/><path class="cls-45" d="M157.3,96.55Z" transform="translate(-34.06 -17.91)"/><path class="cls-45" d="M156.89,96.69Z" transform="translate(-34.06 -17.91)"/><path class="cls-45" d="M158.44,96.32Z" transform="translate(-34.06 -17.91)"/><path class="cls-45" d="M158.57,96.32Z" transform="translate(-34.06 -17.91)"/><path class="cls-45" d="M159,96.32Z" transform="translate(-34.06 -17.91)"/><path class="cls-45" d="M159.22,96.28Z" transform="translate(-34.06 -17.91)"/><path class="cls-45" d="M157.64,95.43Z" transform="translate(-34.06 -17.91)"/><path class="cls-45" d="M156.26,94.52Z" transform="translate(-34.06 -17.91)"/><path class="cls-45" d="M156,94.87Z" transform="translate(-34.06 -17.91)"/><path class="cls-45" d="M153.38,95.64a2.07,2.07,0,0,0-1.61,1.27s1.14.81,1.58.48c-.37.27-1.09-1.3.06-1.3.5-.15,1.09-.31,1.58-.49a5.84,5.84,0,0,0-1.61,0Z" transform="translate(-34.06 -17.91)"/><path class="cls-45" d="M151.32,97.91c.16.59-.15-.6,0,0C151.32,97.92,151.31,97.89,151.32,97.91Z" transform="translate(-34.06 -17.91)"/><path class="cls-45" d="M150.79,94.65c.13,0,2.7,0,2.66-.21a0,0,0,0,1,0-.06c-.33-.6-2.55.28-2.64.27Z" transform="translate(-34.06 -17.91)"/><path class="cls-45" d="M152.52,94.29Z" transform="translate(-34.06 -17.91)"/><path class="cls-45" d="M149.24,94.54c0-.12,1.47.33,1.49.16,0-.49-1.49-.13-1.49-.16Z" transform="translate(-34.06 -17.91)"/><path class="cls-45" d="M151.07,94.4Z" transform="translate(-34.06 -17.91)"/><path class="cls-45" d="M144.61,101.66c.07,0-.54.53,0,0Z" transform="translate(-34.06 -17.91)"/><path class="cls-45" d="M143.49,102.59c.22.17-.14-.08,0,0Z" transform="translate(-34.06 -17.91)"/></g><g class="cls-46"><path class="cls-38" d="M159.69,116.65a27,27,0,0,1-27,27c-14.9,0-14.9-53.95,0-53.95A27,27,0,0,1,159.69,116.65Z" transform="translate(-34.06 -17.91)"/></g><g class="cls-46"><path class="cls-38" d="M159.69,116.65c0,14.9-41.87-27-27-27A27,27,0,0,1,159.69,116.65Z" transform="translate(-34.06 -17.91)"/></g><path class="cls-47" d="M190.12,44.29l-2.42-1.56-1.32,1a.67.67,0,0,1-.74,0,.61.61,0,0,1-.17-.15.68.68,0,0,1,.13-.93l6-4.45a.68.68,0,0,1,1.05.68l-1.57,7.28a.68.68,0,0,1-.79.51.74.74,0,0,1-.21-.09.61.61,0,0,1-.28-.67Zm.29-1.36.57-2.66-2.18,1.62Z" transform="translate(-34.06 -17.91)"/><path class="cls-12" d="M91.56,170.35l10.55-23.26a2.37,2.37,0,0,1,3.15-1.18l.12.05,0,0,5.44,2.47a8.22,8.22,0,0,1,.55,14.7,9.27,9.27,0,0,1-11.53,13.59l-7-3.16a0,0,0,0,1,0-.06c-.08,0-.1,0-.14,0A2.43,2.43,0,0,1,91.56,170.35Zm11.07-12.76,3.39,1.54a3.47,3.47,0,0,0,4.56-1.78,3.41,3.41,0,0,0-1.7-4.53l-3.39-1.54Zm-5.69,12.53,4.93,2.23a4.48,4.48,0,0,0,3.7-8.16L100.64,162Z" transform="translate(-34.06 -17.91)"/><path class="cls-28" d="M273,96.57a5.79,5.79,0,0,1,5.79-5.68,6,6,0,0,1,3.65,1.23.93.93,0,0,1,.16,1.26.92.92,0,0,1-1.26.17,3.91,3.91,0,0,0-2.54-.87,4.15,4.15,0,0,0-2.84,1.14,3.86,3.86,0,0,0,0,5.5,4.19,4.19,0,0,0,2.84,1.14,4,4,0,0,0,2.54-.87,1,1,0,0,1,1.26.17.93.93,0,0,1-.16,1.26,5.92,5.92,0,0,1-3.65,1.23A5.77,5.77,0,0,1,273,96.57Z" transform="translate(-34.06 -17.91)"/><path class="cls-28" d="M136.4,166.17l-4-12.16a1.18,1.18,0,0,1,.76-1.51l2.43-.8a7.59,7.59,0,0,1,4.73,14.42l-2.43.8A1.17,1.17,0,0,1,136.4,166.17Zm1.91-1.91,1.28-.42a5.18,5.18,0,0,0-3.23-9.84l-1.28.42Z" transform="translate(-34.06 -17.91)"/><path class="cls-28" d="M101.62,199.93l.37-4.64a.43.43,0,0,1,.47-.4h0l2.55.2a.44.44,0,0,1,.4.47.46.46,0,0,1-.47.41l-2.13-.17-.11,1.44,1.83.15a.44.44,0,0,1,.4.47.45.45,0,0,1-.47.41l-1.83-.15-.11,1.45,2.13.17a.44.44,0,0,1-.07.88l-2.55-.2h0A.47.47,0,0,1,101.62,199.93Z" transform="translate(-34.06 -17.91)"/><path class="cls-30" d="M349.27,205.36V187.75a1.62,1.62,0,0,1,1.64-1.64,1.64,1.64,0,0,1,1.67,1.64v7.16h7.73v-7.16a1.62,1.62,0,0,1,1.64-1.64,1.65,1.65,0,0,1,1.67,1.64v17.61A1.64,1.64,0,0,1,362,207a1.62,1.62,0,0,1-1.64-1.64V198.2h-7.73v7.16a1.64,1.64,0,0,1-1.67,1.64A1.62,1.62,0,0,1,349.27,205.36Z" transform="translate(-34.06 -17.91)"/><path class="cls-48" d="M160.45,83.33l5.07-19.28a1.86,1.86,0,0,1,2.27-1.33h0l.07,0,10.59,2.78a1.88,1.88,0,0,1-.95,3.63l-8.86-2.33-1.57,6,7.62,2a1.88,1.88,0,0,1-.95,3.63l-7.62-2-2.06,7.85a1.89,1.89,0,0,1-2.3,1.32A1.86,1.86,0,0,1,160.45,83.33Z" transform="translate(-34.06 -17.91)"/><path class="cls-49" d="M339.7,227.9a1.63,1.63,0,0,0,3.13.78l1.83-4.33a.66.66,0,0,1,.87-.34.64.64,0,0,1,.34.85L344,229.19a2.94,2.94,0,0,1-5.64-1.41.64.64,0,0,1,.7-.59A.66.66,0,0,1,339.7,227.9Z" transform="translate(-34.06 -17.91)"/><path class="cls-50" d="M92.13,251.82l-7.89-26.73a2.62,2.62,0,0,1,5-1.48l3.87,13.11,10.42-19.22a2.59,2.59,0,0,1,3.57-1.05,2.68,2.68,0,0,1,1.05,3.56l-7.1,13,14.07,10.3a2.54,2.54,0,0,1,.67,3.62A2.42,2.42,0,0,1,114.4,248a2.59,2.59,0,0,1-2.14-.36l-13.7-10-3.32,6.25,1.92,6.49a2.62,2.62,0,0,1-5,1.48Z" transform="translate(-34.06 -17.91)"/><path class="cls-28" d="M168.9,152.85l7.21-11.43a1.26,1.26,0,0,1,1.74-.39,1.27,1.27,0,0,1,.41,1.75l-6.53,10.35,5.25,3.31a1.27,1.27,0,0,1-1.36,2.15l-6.28-4,0,0h0A1.28,1.28,0,0,1,168.9,152.85Z" transform="translate(-34.06 -17.91)"/><path class="cls-24" d="M272.93,138.29l-6.18,17.07a1.74,1.74,0,0,1-2.2,1,1.69,1.69,0,0,1-1-2.17L267.94,142l-6.26,4.28a1.7,1.7,0,0,1-1.54.2h-.06a1.74,1.74,0,0,1-1.09-1.15l-2.05-7.28-4.41,12.18a1.71,1.71,0,0,1-3.22-1.16L255.49,132a1.71,1.71,0,0,1,2.17-1l.09,0a1.67,1.67,0,0,1,1,1.13l2.87,10.07,8.65-5.9a1.7,1.7,0,0,1,1.54-.2h0A1.73,1.73,0,0,1,272.93,138.29Z" transform="translate(-34.06 -17.91)"/><path class="cls-28" d="M260.43,83.26a.43.43,0,1,1-.81-.3l1.56-4.31h0a.43.43,0,0,1,.29-.28.43.43,0,0,1,.53.29l1.2,4.18,1.11-3.06a.44.44,0,0,1,.55-.26.43.43,0,0,1,.26.55l-1.56,4.31a.44.44,0,0,1-.56.26.4.4,0,0,1-.25-.26.14.14,0,0,1,0-.06l-1.18-4.15Z" transform="translate(-34.06 -17.91)"/><path class="cls-28" d="M151,75.52a6.21,6.21,0,0,1,0,8.56,5.55,5.55,0,0,1-4,1.81,5.7,5.7,0,0,1-4.14-1.81,6.29,6.29,0,0,1,0-8.56,5.63,5.63,0,0,1,4.14-1.81A5.51,5.51,0,0,1,151,75.52Zm-.22,4.28a4.39,4.39,0,0,0-1.15-3,3.65,3.65,0,0,0-2.67-1.2,3.69,3.69,0,0,0-2.74,1.2,4.3,4.3,0,0,0-1.15,3,4.21,4.21,0,0,0,1.15,2.94A3.71,3.71,0,0,0,146.91,84a3.66,3.66,0,0,0,2.67-1.22A4.3,4.3,0,0,0,150.73,79.8Z" transform="translate(-34.06 -17.91)"/><path class="cls-51" d="M357.48,154.71,354,156l2.25,6.23a1.7,1.7,0,0,1-3.19,1.15l-6.12-16.94a1.68,1.68,0,0,1,1-2.15h0l5.11-1.85a6.53,6.53,0,1,1,4.44,12.29Zm-4.68-1.91,3.53-1.28a3.15,3.15,0,1,0-2.14-5.92l-3.53,1.28Z" transform="translate(-34.06 -17.91)"/><path class="cls-28" d="M339.73,140.25a3.42,3.42,0,0,1-1.65,1.45h0a4.44,4.44,0,0,1-2.39.09,1.56,1.56,0,0,0-.78.09,2,2,0,0,0-.75.51.67.67,0,0,1-.69.22h-.11a.83.83,0,0,1-.26-.21.71.71,0,0,1,0-1l0,0a5.74,5.74,0,0,1-1.62-.4,4.86,4.86,0,0,1-2.3-2.61,4.79,4.79,0,0,1,.05-3.44,4.25,4.25,0,0,1,2.43-2.38,4.11,4.11,0,0,1,3.37.22,4.63,4.63,0,0,1,2.31,2.56,4.55,4.55,0,0,1-1,4.88l-.23.2a3,3,0,0,0,1.46-.07,1.92,1.92,0,0,0,1-.87.71.71,0,0,1,1-.23A.75.75,0,0,1,339.73,140.25Zm-7.62-.62a2.69,2.69,0,0,0,2.21.13,2.85,2.85,0,0,0,1.61-1.55,3.25,3.25,0,0,0,0-2.4,3.11,3.11,0,0,0-1.57-1.77,2.82,2.82,0,0,0-2.24-.14,2.65,2.65,0,0,0-1.58,1.56,3.13,3.13,0,0,0,0,2.37A3.25,3.25,0,0,0,332.11,139.63Z" transform="translate(-34.06 -17.91)"/><path class="cls-23" d="M287.28,60.65a1.56,1.56,0,0,1,0,2.22,2.26,2.26,0,0,1-.52.35h0a2.07,2.07,0,0,1-1.13.2,2.75,2.75,0,0,1-1.25-.5,7.7,7.7,0,0,1-2-2.81,2.49,2.49,0,0,0-.84-.95,2.65,2.65,0,0,0-1.13-.37,5.37,5.37,0,0,0-1.73.08l-3,1.47,2.7,5.54a1.58,1.58,0,0,1-2.84,1.38l-7.33-15.08a1.54,1.54,0,0,1,.72-2.09h0l4.55-2.21a6.08,6.08,0,0,1,8.18,8,4.21,4.21,0,0,1,1.35.51,5.45,5.45,0,0,1,2.19,2.35A7.65,7.65,0,0,0,286,60.2,1.58,1.58,0,0,1,287.28,60.65Zm-8.57-8.53a2.93,2.93,0,0,0-3.92-1.38l-3.14,1.53,2.56,5.27L277.35,56A2.93,2.93,0,0,0,278.71,52.12Z" transform="translate(-34.06 -17.91)"/><path class="cls-28" d="M301.83,84.66a.42.42,0,0,1,.37-.45,2.56,2.56,0,0,0,1.5-.64,1.65,1.65,0,0,0,.49-.9A.72.72,0,0,0,304,82a.45.45,0,0,0-.23-.13.73.73,0,0,0-.33,0,3.17,3.17,0,0,0-1,.5h0a4.08,4.08,0,0,1-.94.5,1.64,1.64,0,0,1-.95.08,1.2,1.2,0,0,1-.59-.33,1.44,1.44,0,0,1-.37-1.26,2.33,2.33,0,0,1,.67-1.26,3.06,3.06,0,0,1,1.66-.77.4.4,0,0,1,.47.32.4.4,0,0,1-.31.48,2.22,2.22,0,0,0-1.25.54,1.52,1.52,0,0,0-.44.81.61.61,0,0,0,.14.56.4.4,0,0,0,.19.12.62.62,0,0,0,.3,0,2.81,2.81,0,0,0,.94-.45h0a4.94,4.94,0,0,1,1-.54,1.9,1.9,0,0,1,1-.1,1.28,1.28,0,0,1,.61.34,1.5,1.5,0,0,1,.38,1.34,2.51,2.51,0,0,1-.71,1.35,3.41,3.41,0,0,1-2,.87A.37.37,0,0,1,301.83,84.66Z" transform="translate(-34.06 -17.91)"/><rect class="cls-52" x="132.38" y="192.14" width="5.3" height="38.15" transform="matrix(0.59, -0.81, 0.81, 0.59, -149.25, 177.91)"/><rect class="cls-17" x="115.77" y="197.66" width="5.3" height="2.91" transform="translate(-146.29 159.51) rotate(-53.88)"/><path class="cls-13" d="M115.43,195.82l-1.06,1.45a1.76,1.76,0,0,0,.38,2.45l.93.68,3.13-4.28-.93-.68A1.74,1.74,0,0,0,115.43,195.82Z" transform="translate(-34.06 -17.91)"/><polygon class="cls-7" points="123.91 210.05 114.81 206.69 117.93 202.41 123.91 210.05"/><polygon class="cls-28" points="123.91 210.05 121.37 209.12 122.24 207.92 123.91 210.05"/><rect class="cls-53" x="134.47" y="191.07" width="2.65" height="38.15" transform="translate(-148.07 178.14) rotate(-53.9)"/></svg>