<svg id="Layer_1" data-name="Layer 1" xmlns="http://www.w3.org/2000/svg" viewBox="0 0 609.1 224.65"><defs><style>.cls-1,.cls-10,.cls-2,.cls-3,.cls-4,.cls-5,.cls-6,.cls-7,.cls-8,.cls-9{fill:none;stroke-width:2px;}.cls-1{stroke:#b0a77a;}.cls-2{stroke:#b0c1e1;}.cls-3{stroke:#fad8d3;}.cls-4{stroke:#f16991;}.cls-5{stroke:#ab9ab4;}.cls-6{stroke:#f67657;}.cls-7{stroke:#a7529f;}.cls-8{stroke:#ad906f;}.cls-9{stroke:#f35f4c;}.cls-10{stroke:#b1e0d3;}.cls-11{fill:#6183c2;}.cls-12,.cls-19{fill:#ffcb31;}.cls-13{fill:#fff;}.cls-14{fill:#f4b1a6;}.cls-15{fill:#ed217c;}.cls-16{fill:#f99d1b;}.cls-17,.cls-18{fill:#f6e668;}.cls-17{fill-opacity:1;}.cls-18{fill-opacity:0.8;}.cls-19{isolation:isolate;font-size:21px;font-family:OLRoundGothic-Light, OLRoundGothic;font-weight:300;letter-spacing:0.02em;}.cls-20{letter-spacing:0em;}</style></defs><path class="cls-1" d="M649.2,105.9a22.29,22.29,0,0,0-2,9.1c0,.4.2.6.6.3l8.7-5a1.1,1.1,0,0,1,.8,0l8,4.9" transform="translate(-96.5 -92.05)"/><path class="cls-2" d="M675,122.7l-81.7,47.1a.75.75,0,0,1-.9,0L541.2,140" transform="translate(-96.5 -92.05)"/><path class="cls-3" d="M639.2,159.1a1.8,1.8,0,0,0-.9-.4,2,2,0,0,0-1,.2q-23.7,13.5-47.2,27.2a.48.48,0,0,0-.2.6c0,.1.1.1.2.2l9.7,5.4a.61.61,0,0,0,.8,0q23.7-13.65,47.5-27.1c.1-.1.2-.1.2-.2s.1-.4,0-.4" transform="translate(-96.5 -92.05)"/><path class="cls-4" d="M650.5,165.6c.7.5.6.9-.1,1.4q-25,14.4-50.2,28.9a1,1,0,0,0-.5.8l-.1,5.9" transform="translate(-96.5 -92.05)"/><path class="cls-5" d="M599.7,202.4l-15.9-9.3" transform="translate(-96.5 -92.05)"/><path class="cls-2" d="M615.9,310.5V214.9a1.39,1.39,0,0,0-.7-1.2L579,192.8a.91.91,0,0,0-1,0l-6.6,3.6c-.1.1-.2,0-.3,0-.3-.3-.3-.3-.1-.2" transform="translate(-96.5 -92.05)"/><path class="cls-6" d="M652.4,190.6l-15.1,8.7c-.2.1-.2.3-.1.5a.1.1,0,0,0,.1.1l15.2,8.8" transform="translate(-96.5 -92.05)"/><path class="cls-6" d="M652.5,213.2,637.3,222a.48.48,0,0,0-.2.6c0,.1.1.1.2.2l15.1,8.7" transform="translate(-96.5 -92.05)"/><path class="cls-6" d="M652.3,236.6l-15.2,8.7a.25.25,0,0,0-.1.4l.1.1,15.2,8.8" transform="translate(-96.5 -92.05)"/><path class="cls-7" d="M617.7,290.1l.1-76.2a1.89,1.89,0,0,0-.9-1.6l-17.2-9.9" transform="translate(-96.5 -92.05)"/><path class="cls-2" d="M606.5,315.9V220.3a1.05,1.05,0,0,0-.5-.9l-35.8-20.7a1,1,0,0,1-.6-.9,2.2,2.2,0,0,1,.1-.8" transform="translate(-96.5 -92.05)"/><path class="cls-7" d="M565.8,254.7,582,264a1.72,1.72,0,0,0,1.7,0l15.4-8.9c.2-.1.3-.4.1-.5a.1.1,0,0,0-.1-.1l-19.9-11.7" transform="translate(-96.5 -92.05)"/><path class="cls-8" d="M579.2,242.7l19.6-11.4a.54.54,0,0,0,.2-.8c-.1-.1-.1-.2-.2-.2l-33.1-19.1" transform="translate(-96.5 -92.05)"/><path class="cls-9" d="M579.2,242.7l-7.2,4.1a.75.75,0,0,1-.9,0l-19.3-11.1" transform="translate(-96.5 -92.05)"/><path class="cls-10" d="M195.1,194.8a25.82,25.82,0,0,1-.7,4.2c-5.2,19.3-8.6,32.4-10.4,39.2-.1.2,0,.4.2.7s.4.2.5-.1l11.4-43.7" transform="translate(-96.5 -92.05)"/><path class="cls-10" d="M180.3,239.1c2.3-8.2,4.4-16.3,6.4-24.4a4.18,4.18,0,0,1,.3-.9.9.9,0,0,0-.1-1c-.2-.3-.3-.3-.4.1L179.6,239" transform="translate(-96.5 -92.05)"/><path class="cls-10" d="M262.7,196.3l-10.6,40.2a.38.38,0,0,0,.3.5h.1c.3,0,.4,0,.4-.2,3.4-13.4,6.9-26.8,10.5-40.1" transform="translate(-96.5 -92.05)"/><path class="cls-10" d="M269,194.8a6,6,0,0,1-.1,2.3c-3.6,13.7-7.2,27.3-10.8,41v.4a.52.52,0,0,0,.2.4c.2.3.4.2.5-.1,5.8-21.6,9.5-35.8,11.1-42.4a3.52,3.52,0,0,0-.2-1.2" transform="translate(-96.5 -92.05)"/><path class="cls-10" d="M191.1,195.8v.4a.45.45,0,0,0,.3.4c.1,0,.3-.1.3-.2a2.06,2.06,0,0,0-.2-1.7.21.21,0,0,0-.4,0,.37.37,0,0,0-.1.3c.2,0,.2.3.1.8" transform="translate(-96.5 -92.05)"/><path class="cls-10" d="M189.7,195.4c.1-.2-.1-.4-.3-.4h-.1c-.2-.1-.4.1-.4.3L178,236.7c-.1.2.1.4.3.4h.1c.2.1.4-.1.4-.3l10.9-41.4" transform="translate(-96.5 -92.05)"/><path class="cls-10" d="M193.6,196.6c0-.1,0-.3-.2-.3h0l-.2-.1c-.1,0-.3,0-.3.2h0l-10.8,41.3c0,.1,0,.3.2.3h0l.2.1c.1,0,.3,0,.3-.2h0l10.8-41.3" transform="translate(-96.5 -92.05)"/><path class="cls-10" d="M190.4,200.6c.2,0,.5-.8.6-1.8s.1-1.8-.1-1.9-.5.8-.6,1.8-.1,1.9.1,1.9" transform="translate(-96.5 -92.05)"/><path class="cls-10" d="M190.2,201.4c0-.1,0-.3-.2-.3h-.1c-.1,0-.3,0-.3.2h0L187,211.4c0,.1,0,.3.2.3h.1c.1,0,.3,0,.3-.2h0l2.6-10.1" transform="translate(-96.5 -92.05)"/><path class="cls-10" d="M265.7,196.4l.2-1.2a.27.27,0,0,0-.3-.3c-.2,0-.3.1-.3.2-.1.4-.1.8-.2,1.2a.27.27,0,0,0,.3.3c.2.1.3,0,.3-.2" transform="translate(-96.5 -92.05)"/><path class="cls-10" d="M264,209.1c-.6.1-.9.7-1,1.6s-.1,1.4-.2,1.8c-2.3,8.4-4.6,16.8-6.6,25.2-.1.3,0,.4.3.4a.52.52,0,0,0,.4-.2q3.45-13.8,7.2-27.6a4.87,4.87,0,0,0-.1-1.2" transform="translate(-96.5 -92.05)"/><path class="cls-10" d="M264,209.1l3.2-12c0-.1,0-.1-.1-.1a.1.1,0,0,0-.1.1,48,48,0,0,0-3,12" transform="translate(-96.5 -92.05)"/><path class="cls-10" d="M261.9,208.6a18,18,0,0,0-1.7,7.1c0,.1.1.2.3.2a.22.22,0,0,0,.2-.2l.5-2.7a4.18,4.18,0,0,1,.4-1,6.12,6.12,0,0,0,.3-3.4" transform="translate(-96.5 -92.05)"/><path class="cls-10" d="M261.9,208.6c.6,0,.9-.4.9-1.1s.1-1,.1-1.3c.8-2.7,1.3-4.6,1.6-5.6.9-4.3.6-4.3-.7-.2a67.78,67.78,0,0,0-1.9,8.2" transform="translate(-96.5 -92.05)"/><path class="cls-10" d="M259.3,219.8c.2,0,.5-.7.6-1.6s.1-1.7-.1-1.7-.5.7-.6,1.6-.1,1.6.1,1.7" transform="translate(-96.5 -92.05)"/><path class="cls-10" d="M259.2,220.4c0-.1,0-.3-.2-.3h-.1c-.1,0-.3,0-.3.2h0L256,230.6c0,.1,0,.3.2.3h.1c.1,0,.3,0,.3-.2h0l2.6-10.3" transform="translate(-96.5 -92.05)"/><path class="cls-10" d="M255.6,231.2l-1.7,6.9h.1c.3.1.7-.1.7-.4h0l1.4-5.8c.1-.3-.1-.6-.5-.7h0" transform="translate(-96.5 -92.05)"/><path class="cls-11" d="M649.2,105.9a22.29,22.29,0,0,0-2,9.1c0,.4.2.6.6.3l8.7-5a1.1,1.1,0,0,1,.8,0l8,4.9-.2,1.1c-.1.4.1.5.4.5h1a.63.63,0,0,1,.6.5.68.68,0,0,0,.9.6,1,1,0,0,1,.9.2,29,29,0,0,1,2.9,1.9c1,.8,2.6,1,3.2,2.8l-81.7,47.1a.75.75,0,0,1-.9,0L541.2,140l2-2a.86.86,0,0,1,.9-.3.68.68,0,0,0,.9-.6.69.69,0,0,1,.8-.5h.1c.6.2,1,0,1.1-.5a.63.63,0,0,1,.6-.5,2,2,0,0,0,2-1.1,1.85,1.85,0,0,1,.8-.7l3.5-1.5a.22.22,0,0,0,.2-.2v-.3c0-.1.1-.2.2-.1a2.62,2.62,0,0,0,2.5-1.1,1.56,1.56,0,0,1,.8-.6,85.83,85.83,0,0,0,11.3-6.4,25.61,25.61,0,0,1,3.9-2.2,13.65,13.65,0,0,0,3.1-1.9,9.41,9.41,0,0,1,2.2-1.2,14.34,14.34,0,0,0,2.2-1.1c4.9-3,9.8-5.8,14.7-8.7,9.4-5.3,18.8-10.8,28.1-16.3a1.08,1.08,0,0,1,1.1,0l20.8,12a2.18,2.18,0,0,1,.5.4C646.1,105.6,647.4,106,649.2,105.9Z" transform="translate(-96.5 -92.05)"/><path class="cls-12" d="M665.3,115.2l-8-4.9a.76.76,0,0,0-.8,0l-8.7,5q-.6.3-.6-.3a22.29,22.29,0,0,1,2-9.1,23.67,23.67,0,0,1,8.1-10.3c2.8-2,6.8-2.6,9.4,0C671.2,100.3,668.4,110.2,665.3,115.2Z" transform="translate(-96.5 -92.05)"/><path class="cls-13" d="M675,122.7a2.7,2.7,0,0,1,.1,1.8,1.34,1.34,0,0,1-.6.7,29.21,29.21,0,0,0-3.6,1.8c-9.6,5.7-16.6,9.7-20.9,12.1-3.5,2-6.7,3.8-9.5,5.6-1.3.8-2.8,1.7-4.8,2.7-1.6.9-3.2,1.8-4.7,2.8a29.94,29.94,0,0,1-3.2,1.6,16.65,16.65,0,0,0-2.8,1.8,2.18,2.18,0,0,1-.8.5,14.29,14.29,0,0,0-3,1.6,27.19,27.19,0,0,1-2.9,1.9,52.35,52.35,0,0,0-5.7,3.2c-.6.4-1.8,1-3.7,2a13.25,13.25,0,0,0-3.8,2.9,1.68,1.68,0,0,1-1.8.5,1,1,0,0,0-1.3.5.66.66,0,0,1-.5.4,3,3,0,0,0-2.2,1.3,1.34,1.34,0,0,1-.7.6l-5.9,2.9a1.39,1.39,0,0,1-.9,0q-23.55-13.5-47-27.3c-2-1.2-4.1-1.8-3.6-4.5l51.3,29.8a.75.75,0,0,0,.9,0Z" transform="translate(-96.5 -92.05)"/><path class="cls-14" d="M639.2,159.1a1.8,1.8,0,0,0-.9-.4,2,2,0,0,0-1,.2q-23.7,13.5-47.2,27.2a.48.48,0,0,0-.2.6c0,.1.1.1.2.2l9.7,5.4a.61.61,0,0,0,.8,0q23.7-13.65,47.5-27.1c.1-.1.2-.1.2-.2s.1-.4,0-.4c1.3-.2,2,.1,2.3.9.7.5.6.9-.1,1.4q-25.05,14.4-50.2,28.9a1,1,0,0,0-.5.8l-.1,5.9-15.9-9.3a11.32,11.32,0,0,0,.4-4.4c-.1-1.4.3-2.1,1.4-2.3a1,1,0,0,0,.7-.4,1.86,1.86,0,0,1,2-.6c.2.1.3,0,.3-.2s-.1-.2-.3-.2-.1,0-.1-.1a.1.1,0,0,1,.1-.1l3-1.6a2.65,2.65,0,0,0,.6-.5,1.25,1.25,0,0,1,1.3-.4c.4.1.5,0,.4-.4l-.1-.3c0-.1,0-.1.1-.2h0l1.9-.1a.35.35,0,0,0,.2-.1c0-.2,0-.3-.2-.3a.35.35,0,0,1-.2-.1c0-.1,0-.1.1-.1l5.2-2.7-.1-.1h-.1v-.1c4.7-2.6,9.3-5.4,13.9-8.1a41.56,41.56,0,0,1,4.7-2.4,2.1,2.1,0,0,0,.8-.6,1.45,1.45,0,0,1,1.7-.4c.3.1.4,0,.2-.2l-.2-.2v-.1c3.6-2.1,7.3-4.2,10.9-6.2.1,0,.8-.6,2.1-1.6s2.5-.8,4,.3a.37.37,0,0,0,.3.1l.4-.1c.2,0,.4.1.4.3a.52.52,0,0,1-.2.4Z" transform="translate(-96.5 -92.05)"/><path class="cls-13" d="M639.2,159.1c.2.6.7.7,1.7.3.2-.1.3,0,.4.1l.2.2c.1.1.1.1,0,.1s-.2.1-.2.3,0,.1.1.1a27.68,27.68,0,0,1,4.6,2.2,1,1,0,0,1,.5.6c.2.5.7.6,1.5.5.4-.1.6.1.6.4a2.54,2.54,0,0,1-.2.7c.1,0,.1.1,0,.4-.1.1-.1.2-.2.2q-23.7,13.5-47.5,27.1a.61.61,0,0,1-.8,0l-9.7-5.4a.48.48,0,0,1-.2-.6c0-.1.1-.1.2-.2,15.7-9.1,31.5-18.2,47.2-27.2a1.3,1.3,0,0,1,1-.2A5.9,5.9,0,0,1,639.2,159.1Z" transform="translate(-96.5 -92.05)"/><path class="cls-15" d="M650.5,165.6a1.88,1.88,0,0,1,1.5.3,1,1,0,0,1,.4.9v23.9l-15.1,8.7c-.2.1-.2.3-.1.5a.1.1,0,0,0,.1.1l15.2,8.8v4.4L637.3,222a.48.48,0,0,0-.2.6c0,.1.1.1.2.2l15.1,8.7-.1,5.1-15.2,8.7a.25.25,0,0,0-.1.4l.1.1,15.2,8.8v16.2a1,1,0,0,1-.5.8c-11.1,6.4-22.1,12.7-33.1,19.1a.63.63,0,0,1-.7.1c-.2-.1-.3-.4-.4-.8l.1-76.2a1.89,1.89,0,0,0-.9-1.6l-17.2-9.9.1-5.9a1,1,0,0,1,.5-.8c16.7-9.7,33.5-19.3,50.2-28.9C651.1,166.5,651.2,166.1,650.5,165.6Z" transform="translate(-96.5 -92.05)"/><path class="cls-11" d="M529.2,188.7v.4a.27.27,0,0,1-.3.3,2.2,2.2,0,0,0-2.7,1.2.89.89,0,0,1-.8.5,2.67,2.67,0,0,0-2.1,1.3c-.4.5-.5.5-.5-.2v-16c0-.4.2-.6.6-.5a2.19,2.19,0,0,0,2.6-1.6.68.68,0,0,1,.6-.4h.5a.75.75,0,0,0,.8-.5c.2-.7.7-.8,1.5-.4a.53.53,0,0,0,.7-.2.45.45,0,0,0,0-.5c-.3-.4,0-.6,1-.5.2,0,.3.1.3.4v15.7c0,.4-.2.6-.6.5l-.7-.2C529.3,188,529.1,188.2,529.2,188.7Z" transform="translate(-96.5 -92.05)"/><path class="cls-16" d="M535.2,201.1V183.7c0-.1.1-.2.2-.3l9-5.2a.44.44,0,0,1,.5.1V196c0,.1-.1.2-.2.3l-9,5.1a.44.44,0,0,1-.5-.1C535.3,201.2,535.2,201.2,535.2,201.1Z" transform="translate(-96.5 -92.05)"/><path class="cls-12" d="M652.4,208.8,637.2,200c-.2-.1-.2-.3-.1-.5a.1.1,0,0,1,.1-.1l15.1-8.7,2.4-1.3a.75.75,0,0,1,.9,0l14.4,8.3c.6.3.6.7,0,1Z" transform="translate(-96.5 -92.05)"/><path class="cls-11" d="M583.8,193.2l15.9,9.3,17.2,9.9a1.8,1.8,0,0,1,.9,1.6l-.1,76.2-.4,19.2a.75.75,0,0,1-.5.7l-1,.5V215a1.39,1.39,0,0,0-.7-1.2l-36.1-21a.91.91,0,0,0-1,0l-6.6,3.6c-.1.1-.2,0-.3,0-.3-.3-.3-.3-.1-.2a4.81,4.81,0,0,0,2-2c.2-.3.5-.4.7-.2.6.3,1,0,1.2-.6.1-.3.2-.4.5-.3l.7.1a.57.57,0,0,0,.7-.4h0v-.3c0-.2,0-.3.2-.3a3.87,3.87,0,0,1,3.3.6,3.55,3.55,0,0,0,.9.4Z" transform="translate(-96.5 -92.05)"/><path class="cls-13" d="M195.1,194.8a25.82,25.82,0,0,1-.7,4.2c-5.2,19.3-8.6,32.4-10.4,39.2-.1.2,0,.4.2.7s.4.2.5-.1l11.4-43.7.7-.1c.3-.1.5.1.5.4a7.81,7.81,0,0,1-.6,5.2,3.81,3.81,0,0,0-.3,1,8.52,8.52,0,0,1-.4,2.3c-.4,1.3-.7,2.1-.8,2.4q-.9,4.35-2.1,8.7c-1.1,3.7-1.8,6.6-2.3,8.6-1.2,5.1-2.6,10.1-4.1,15.1a7.77,7.77,0,0,0-.2,1.6,4,4,0,0,1-.3,1.6,1.7,1.7,0,0,1-1.3.8.47.47,0,0,1-.5-.5v-.1l.4-1.6a.57.57,0,0,0-.4-.7h-.2c-1.2.1-1.7.9-1.5,2.2a.1.1,0,0,1-.1.1h-.3c-.2,0-.3-.1-.2-.2l.7-2.3a.49.49,0,0,0-.3-.6h-.2l-2.1.1c2.3-8.2,4.4-16.3,6.4-24.4a4.18,4.18,0,0,1,.3-.9.9.9,0,0,0-.1-1c-.2-.3-.3-.3-.4.1L179.5,239a.91.91,0,0,0-.7.3.85.85,0,0,0-.2.6,2.66,2.66,0,0,1-.3,1.2q-.3.6-.3,0a1.65,1.65,0,0,1,.5-1.5.82.82,0,0,0,0-1.2,1.08,1.08,0,0,0-.7-.3l-1.4.2a.44.44,0,0,0-.4.6c0,.1,0,.1.1.2q.9,1.5-.6,1.5a.65.65,0,0,1-.6-.6v-.1c.7-3.1,1.4-5.9,2.1-8.3.2-.8.1-2.2.9-3a1.14,1.14,0,0,0,.3-.8,5.06,5.06,0,0,1,.7-3.2,1.61,1.61,0,0,0,.3-.9,9.27,9.27,0,0,1,.4-2.4c.5-1.3.7-2.1.8-2.4.5-2.3,1.1-4.6,1.7-6.9.9-3,1.5-5.3,1.9-6.8,1-4.1,2.1-8.2,3.2-12.2a.55.55,0,0,1,.6-.4,1,1,0,0,1,.9,1.1c0,.4.2.6.6.4a3.78,3.78,0,0,1,3.7.5,1,1,0,0,0,.9.2A2.29,2.29,0,0,1,195.1,194.8Zm-4,1v.4a.45.45,0,0,0,.3.4c.1,0,.3-.1.3-.2a2.06,2.06,0,0,0-.2-1.7.21.21,0,0,0-.4,0,.37.37,0,0,0-.1.3C191.2,195,191.2,195.3,191.1,195.8Zm-1.4-.4c.1-.2-.1-.4-.3-.4h-.1c-.2-.1-.4.1-.4.3L178,236.7c-.1.2.1.4.3.4h.1c.2.1.4-.1.4-.3Zm3.9,1.2c0-.1,0-.3-.2-.3h0l-.2-.1c-.1,0-.3,0-.3.2h0l-10.8,41.3c0,.1,0,.3.2.3h0l.2.1c.1,0,.3,0,.3-.2h0Zm-3.2,4c.2,0,.5-.8.6-1.8s.1-1.8-.1-1.9-.5.8-.6,1.8S190.2,200.6,190.4,200.6Zm-.2.8c0-.1,0-.3-.2-.3h-.1c-.1,0-.3,0-.3.2h0L187,211.4c0,.1,0,.3.2.3h.1c.1,0,.3,0,.3-.2h0Z" transform="translate(-96.5 -92.05)"/><path class="cls-13" d="M262.7,196.3l-10.6,40.2a.38.38,0,0,0,.3.5h.1c.3,0,.4,0,.4-.2,3.4-13.4,6.9-26.8,10.5-40.1.6-.3.8-1.1.6-2.2-.1-.4.1-.6.5-.7a2.59,2.59,0,0,1,2.8.8.63.63,0,0,0,.8.2.9.9,0,0,1,1,0,6,6,0,0,1-.1,2.3c-3.6,13.7-7.2,27.3-10.8,41v.4a.52.52,0,0,0,.2.4c.2.3.4.2.5-.1,5.8-21.6,9.5-35.8,11.1-42.4a3.52,3.52,0,0,0-.2-1.2l1.3-.1c.3,0,.5.1.5.4a13.48,13.48,0,0,1-.2,3.5c-3.2,12.1-6.3,24.1-9.5,36.2,0,0-.3,1-.9,2.8a16.47,16.47,0,0,0-.6,3.2,1.6,1.6,0,0,1-.4,1.1,1.38,1.38,0,0,1-1.1.6.63.63,0,0,1-.6-.5v-.2l.4-1.3a.81.81,0,0,0-.4-.9H258l-.5.1a.75.75,0,0,0-.7.6l-.2,1.1c0,.1-.1.2-.2.1s-.2-.2-.2-.3a3.59,3.59,0,0,1,.7-1.8.61.61,0,0,0-.1-.8.64.64,0,0,0-.6,0,2.8,2.8,0,0,1-2.2,0,1.05,1.05,0,0,0-1.3.4.75.75,0,0,0-.1.5,3.11,3.11,0,0,1-.1,1.1c-.3,1-.4,1-.2-.1a7.94,7.94,0,0,1,.6-2.2.48.48,0,0,0-.2-.6c-.1,0-.2-.1-.3,0l-1.5.3a.56.56,0,0,0-.5.6l.1,1.8c0,.3-.2.5-.5.4a.56.56,0,0,1-.5-.6h0a11.16,11.16,0,0,1,.5-4.5c.5-1.4.7-2.2.7-2.2,3.6-13.8,7.2-27.4,10.7-40.8a.89.89,0,0,1,1-.6.84.84,0,0,1,.6.8Zm3,.1.2-1.2a.27.27,0,0,0-.3-.3c-.2,0-.3.1-.3.2-.1.4-.1.8-.2,1.2a.27.27,0,0,0,.3.3C265.6,196.7,265.7,196.6,265.7,196.4ZM264,209.1c-.6.1-.9.7-1,1.6s-.1,1.4-.2,1.8c-2.3,8.4-4.6,16.8-6.6,25.2-.1.3,0,.4.3.4a.52.52,0,0,0,.4-.2q3.45-13.8,7.2-27.6a4.87,4.87,0,0,0-.1-1.2l3.2-12c0-.1,0-.1-.1-.1a.1.1,0,0,0-.1.1A48,48,0,0,0,264,209.1Zm-2.1-.5a18,18,0,0,0-1.7,7.1c0,.1.1.2.3.2a.22.22,0,0,0,.2-.2l.5-2.7a4.18,4.18,0,0,1,.4-1,6.12,6.12,0,0,0,.3-3.4c.6,0,.9-.4.9-1.1s.1-1,.1-1.3c.8-2.7,1.3-4.6,1.6-5.6.9-4.3.6-4.3-.7-.2A67.78,67.78,0,0,0,261.9,208.6Zm-2.6,11.2c.2,0,.5-.7.6-1.6s.1-1.7-.1-1.7-.5.7-.6,1.6S259.1,219.7,259.3,219.8Zm-.1.6c0-.1,0-.3-.2-.3h-.1c-.1,0-.3,0-.3.2h0L256,230.6c0,.1,0,.3.2.3h.1c.1,0,.3,0,.3-.2h0Zm-3.6,10.8-1.7,6.9h.1c.3.1.7-.1.7-.4h0l1.4-5.8c.1-.3-.1-.6-.5-.7Z" transform="translate(-96.5 -92.05)"/><path class="cls-13" d="M126.5,242l.2.3c.1.1.1.2-.1.2H97a.47.47,0,0,1-.5-.5V193.5a.65.65,0,0,1,.6-.6H107a.53.53,0,0,1,.6.6v37.8a.53.53,0,0,0,.6.6l17.2.1a1.9,1.9,0,0,1,1.9,1.9v7a.63.63,0,0,1-.5.6q-.15,0-.3.3C126.3,241.7,126.4,241.8,126.5,242Z" transform="translate(-96.5 -92.05)"/><path class="cls-13" d="M146.3,203.8V212a.53.53,0,0,0,.6.6h16.9a.65.65,0,0,1,.6.6v8.5a.53.53,0,0,1-.6.6H147a.63.63,0,0,0-.7.7l-.1,8.2c0,.5.2.7.7.7h21.6a1.4,1.4,0,0,1,1.4,1.2,26.55,26.55,0,0,1-.4,8.9c-.1.3-.2.4-.5.4H136.3a.63.63,0,0,1-.7-.7V193.4c0-.1.1-.2.2-.1s.1,0,.1.1.1.2.2.3.1.1.2,0h0l.6-.6a1.14,1.14,0,0,1,.8-.3h30.1a1.69,1.69,0,0,1,1.7,1.7h0v8.3a.65.65,0,0,1-.6.6H146.8C146.4,203.4,146.3,203.6,146.3,203.8Z" transform="translate(-96.5 -92.05)"/><path class="cls-13" d="M215.3,204v37.8a.53.53,0,0,1-.6.6h-9a1.53,1.53,0,0,1-1.7-1.7V194.9a2.09,2.09,0,0,1,2-2.1h18.7c.1,0,.2.1.3.2s.2.3.4.3c16.3.8,23.7,19.7,9.5,29.7a2.48,2.48,0,0,0-.7,3.2l9.3,15.5c.1.2.1.5-.1.6s-.1.1-.2.1H232.3a.89.89,0,0,1-.8-.5c-2.6-4.5-5.1-9-7.7-13.4a10.18,10.18,0,0,1-1.2-4.2c-.1-2.4-.1-4.9,0-7.3a.63.63,0,0,1,.5-.6l5.1-1.1a2.18,2.18,0,0,0,.8-.5,7.81,7.81,0,0,0,.4-9.3,3,3,0,0,0-.8-.8l-2.1-1.1a1.88,1.88,0,0,0-.8-.2l-9.8-.1A.66.66,0,0,0,215.3,204Z" transform="translate(-96.5 -92.05)"/><path class="cls-13" d="M301.9,208.4l-12.3,33.7a.68.68,0,0,1-.6.4l-10.5-.1a.65.65,0,0,1-.6-.6v-.2l19.3-48.3a.68.68,0,0,1,.6-.4h9.3a.68.68,0,0,1,.6.4L327,241.7a.63.63,0,0,1-.3.8H315.9a.68.68,0,0,1-.6-.4l-12.2-33.6a.68.68,0,0,0-.8-.4C302.1,208.1,302,208.3,301.9,208.4Z" transform="translate(-96.5 -92.05)"/><path class="cls-13" d="M383.4,241.8l.2.6c0,.1,0,.1-.1.1H353.9a.47.47,0,0,1-.5-.5V193.5a.65.65,0,0,1,.6-.6h9.9a.53.53,0,0,1,.6.6v37.8c0,.4.2.5.5.5l17.2.1a1.9,1.9,0,0,1,1.9,1.9v7a.63.63,0,0,1-.5.6.35.35,0,0,0-.2.1Z" transform="translate(-96.5 -92.05)"/><path class="cls-13" d="M401.3,204v8c0,.4.2.6.5.6h17a.53.53,0,0,1,.6.6v8.6a.53.53,0,0,1-.6.6H401.7a.37.37,0,0,0-.4.4v8.4c0,.5.2.7.7.7h21.6a1.41,1.41,0,0,1,1.4,1.3,29.45,29.45,0,0,1-.4,8.9c-.1.3-.2.4-.5.4H391.4c-.4,0-.6-.2-.6-.7V193.6a.35.35,0,0,1,.1-.2c.1,0,.1,0,.1.1s.1.2.2.3.1.1.2,0h0l.5-.5a1.14,1.14,0,0,1,.8-.3h30a1.59,1.59,0,0,1,1.8,1.8v8.1a.68.68,0,0,1-.7.7H401.9C401.5,203.4,401.3,203.6,401.3,204Z" transform="translate(-96.5 -92.05)"/><path class="cls-13" d="M615.9,310.5l-9.3,5.4V220.3a1.05,1.05,0,0,0-.5-.9l-35.8-20.7a1,1,0,0,1-.6-.9,2.2,2.2,0,0,1,.1-.8,1.61,1.61,0,0,0,.3-.9c0-.3.1-.4.4-.3l.6.2c-.2-.1-.1,0,.1.2a.19.19,0,0,0,.3,0l6.6-3.6a.91.91,0,0,1,1,0l36.1,20.8a1.52,1.52,0,0,1,.7,1.2v95.9Z" transform="translate(-96.5 -92.05)"/><path class="cls-11" d="M569.7,197a2,2,0,0,0-.1.8,1,1,0,0,0,.6.9L606,219.4a1.05,1.05,0,0,1,.5.9v95.6c-1,1.1-2.6,1.1-4.8-.2-11.3-6.5-23-13.3-35.3-20.4a1.56,1.56,0,0,1-.8-1.3V254.7L582,264a1.72,1.72,0,0,0,1.7,0l15.4-8.9c.2-.1.3-.4.1-.5a.1.1,0,0,0-.1-.1l-19.9-11.7,19.6-11.4a.54.54,0,0,0,.2-.8c-.1-.1-.1-.2-.2-.2l-33.1-19.1.1-13c0-.4.2-.5.5-.5l.9.1a.55.55,0,0,0,.6-.4C568,196.8,568.6,196.6,569.7,197Z" transform="translate(-96.5 -92.05)"/><path class="cls-11" d="M684.4,208.9l.8-.8a.86.86,0,0,1,.6-.3,3.45,3.45,0,0,0,2.2-1.6.74.74,0,0,1,.8-.4h.3a.67.67,0,0,0,.7-.4c.2-.7.9-.9,1.9-.5a.55.55,0,0,1,.4.6v13.3a2.25,2.25,0,0,1-1.6,2.1,4.3,4.3,0,0,0-2.4,1.8,1.16,1.16,0,0,1-.7.5,7.34,7.34,0,0,0-3.5,1.8h-.1V208.7c0-.2.1-.2.2-.1s.1.2.2.2C684.2,209,684.3,209,684.4,208.9Z" transform="translate(-96.5 -92.05)"/><path class="cls-16" d="M565.7,211.2l33.1,19.1a.54.54,0,0,1,.2.8c-.1.1-.1.2-.2.2l-19.6,11.4-7.2,4.1a.75.75,0,0,1-.9,0l-19.3-11.1-19.7-11.3a.54.54,0,0,1-.2-.8c.1-.1.1-.2.2-.2l26.4-15.2a1.91,1.91,0,0,1,1.8,0Z" transform="translate(-96.5 -92.05)"/><path class="cls-16" d="M705.5,211.2v17.5c0,.1-.1.2-.1.3l-8.9,5.1c-.1.1-.3,0-.4-.1V216.2c0-.1.1-.2.2-.3l8.9-5.1c.1-.1.3,0,.4.1A.77.77,0,0,0,705.5,211.2Z" transform="translate(-96.5 -92.05)"/><path class="cls-12" d="M652.4,231.5l-15.1-8.7a.48.48,0,0,1-.2-.6c0-.1.1-.1.2-.2l15.2-8.8,2.3-1.1a.91.91,0,0,1,1,0l14.5,8.4a.48.48,0,0,1,.2.6c0,.1-.1.1-.2.2Z" transform="translate(-96.5 -92.05)"/><path class="cls-12" d="M652.4,254.7l-15.2-8.8a.25.25,0,0,1-.1-.4l.1-.1,15.2-8.7,2.5-1.4a.9.9,0,0,1,1,0l14.6,8.4a.48.48,0,0,1,.2.6c0,.1-.1.1-.2.2Z" transform="translate(-96.5 -92.05)"/><path class="cls-15" d="M551.7,235.7,571,246.8a.75.75,0,0,0,.9,0l7.2-4.1L599,254.4c.2.1.3.4.1.5a.1.1,0,0,1-.1.1l-15.4,8.9a1.72,1.72,0,0,1-1.7,0l-16.2-9.3L544,242.1c-1.1-.6-1.1-1.3,0-1.9Z" transform="translate(-96.5 -92.05)"/><path class="cls-17" d="M365,299.6a.28.28,0,0,0,0,.5.37.37,0,0,0,.3.1h24.2c.3,0,.4.1.4.4v.3c0,.3-.1.4-.4.4h-27c-.4,0-.4-.1-.1-.4,6.7-6.2,13.4-12.4,20.1-18.5a14.7,14.7,0,0,0,4.9-8.4c1.8-11-10.2-18.2-19.2-12.2-3.2,2.1-5,5.4-5.5,9.9,0,.3-.2.5-.5.4l-.3-.1a.57.57,0,0,1-.4-.7c.9-5.4,3.6-9.2,8-11.4a12.94,12.94,0,0,1,16.5,3.9c3.2,4.3,3.8,8.6,2,12.9-.9,2.1-3.2,4.8-6.9,8.2C375.5,289.7,370.2,294.6,365,299.6Z" transform="translate(-96.5 -92.05)"/><path class="cls-18" d="M413.1,302c-10.5,0-19-9.8-19-21.9s8.5-21.9,19-21.9h0c10.5,0,19,9.8,19,21.9S423.6,302,413.1,302Zm.1-1.4c10,0,18-9.2,18-20.5s-8.1-20.5-18-20.5-18,9.2-18,20.5S403.2,300.6,413.2,300.6Z" transform="translate(-96.5 -92.05)"/><path class="cls-17" d="M440,299.6a.45.45,0,0,0,0,.5.31.31,0,0,0,.2.1h24.2c.3,0,.4.1.4.4v.3c0,.3-.1.4-.4.4h-27a.22.22,0,0,1-.2-.2c0-.1,0-.1.1-.1,7.1-6.6,14.1-13.1,21.2-19.6a12.38,12.38,0,0,0-5.7-21.4c-8-1.7-14.4,3.6-15.4,11.6a.43.43,0,0,1-.4.4.27.27,0,0,1-.3-.3c.4-5,2.5-8.7,6.2-11.1,14.2-8.8,28.4,10.4,15.6,21.9C452.4,288.2,446.2,293.9,440,299.6Z" transform="translate(-96.5 -92.05)"/><path class="cls-17" d="M487.6,279.2c3.9,1.9,6.2,4.6,7,8,2.5,11.2-10.4,19.3-19.2,11.5a11.16,11.16,0,0,1-4-8.6c0-.2.1-.4.3-.4s.4.1.4.3c1.3,6.7,4.9,10.2,10.8,10.4,13.7.5,15-20.1.6-21.2a.46.46,0,0,1-.4-.5c0-.2.2-.3.4-.4,7.4-.9,12.4-9.1,6.9-15.5-5.7-6.5-15.8-3-16.7,5.7a.27.27,0,0,1-.3.3h-.3a.37.37,0,0,1-.4-.4c.7-7.3,8.8-12.6,15.3-8.9,5.4,3.1,7.4,9.8,3.9,15.1a19,19,0,0,1-4.2,3.7C487.1,278.7,487.1,279,487.6,279.2Z" transform="translate(-96.5 -92.05)"/><path class="cls-17" d="M209.8,300.2c5.7,0,11.3.1,17,0,.2,0,.3,0,.4.1s.3.2.3.3-.1.5-.4.6H208.4a.47.47,0,0,1-.5-.5V259.4a.63.63,0,0,1,.5-.6c.5-.1.8.3.8,1-.2,13.2-.2,26.4,0,39.7C209.2,300,209.4,300.2,209.8,300.2Z" transform="translate(-96.5 -92.05)"/><path class="cls-17" d="M235.2,278.2h17.5a.55.55,0,0,1,.5.3.35.35,0,0,0,.1.2c.1.2.1.4-.1.5s-.1.1-.2.1H235.3c-.4,0-.6.2-.6.5v19.8a.47.47,0,0,0,.5.5h20.2a.43.43,0,0,1,.4.4h0v.3a.27.27,0,0,1-.3.3H234.4a.56.56,0,0,1-.6-.5h0v-41a.86.86,0,0,1,.8-.8h19.5a.55.55,0,0,1,.5.3c.2.6,0,.8-.5.8-6.3,0-12.7,0-19,.1a.47.47,0,0,0-.5.5v17C234.8,278.1,234.9,278.2,235.2,278.2Z" transform="translate(-96.5 -92.05)"/><path class="cls-17" d="M262.4,258.9h0a.43.43,0,0,1,.4.4v41.8a.43.43,0,0,1-.4.4h0a.43.43,0,0,1-.4-.4V259.3A.37.37,0,0,1,262.4,258.9Z" transform="translate(-96.5 -92.05)"/><path class="cls-17" d="M281,282.1a.32.32,0,0,0-.3.3c0,.1,0,.1.1.2,3.4,4.9,6.7,9.9,10.1,14.9.6.9,2.1,2.1,2.3,3.4a.46.46,0,0,1-.4.5.52.52,0,0,1-.4-.2l-12.6-18.7a1.05,1.05,0,0,0-.9-.5h-6.8a1.11,1.11,0,0,0-1.1,1.1v18c0,.2-.1.3-.3.2a.37.37,0,0,1-.3-.1c-.1,0-.1-.1-.1-.2l.2-41.7a.47.47,0,0,1,.5-.5c4.6-.2,12.4-1,16.2,1.8a14.38,14.38,0,0,1,4.9,6.6c1.5,3.8.2,6.6-2,9.9A11.21,11.21,0,0,1,281,282.1Zm-10.3-20.8v18.5a1.11,1.11,0,0,0,1.1,1.1h8.8c5.9,0,10.7-4.6,10.6-10.2v-.3a10.49,10.49,0,0,0-10.7-10.2h-8.8c-.5-.1-1,.4-1,1.1Z" transform="translate(-96.5 -92.05)"/><path class="cls-17" d="M299.7,258.9h0a.47.47,0,0,1,.5.5V301a.47.47,0,0,1-.5.5h0a.47.47,0,0,1-.5-.5V259.4A.47.47,0,0,1,299.7,258.9Z" transform="translate(-96.5 -92.05)"/><path class="cls-17" d="M332.8,282.1H316.5a1.54,1.54,0,0,0-1.5,1c-2.8,6.4-5.3,12.3-7.6,18a.59.59,0,0,1-.9.3.37.37,0,0,1-.2-.5l17.9-41.7q.15-.3.3,0l18,41.9c.1.2,0,.4-.2.4a.19.19,0,0,1-.3-.1c-.8-.7-1.5-2.8-1.9-3.6-2.3-5-4.5-10.1-6.5-15.2A1,1,0,0,0,332.8,282.1Zm-12.7-11c-.3.6-.7,1.2-1,1.8-1.3,2.2-1.1,4.4-3.2,6.6a.78.78,0,0,0,0,1.1.76.76,0,0,0,.5.2l15.5.1c.3,0,.5-.2.4-.5a36.18,36.18,0,0,0-2-5.5c-1.1-2.4-1.9-5.4-3.6-7.9a1.61,1.61,0,0,1-.3-.9,8.77,8.77,0,0,0-1.4-3.8,1,1,0,0,0-1.3-.3,1,1,0,0,0-.4.5c-.6,1.5-.6,2.6-1.6,4.1S320.9,269.7,320.1,271.1Z" transform="translate(-96.5 -92.05)"/><path class="cls-12" d="M127.9,137a.49.49,0,0,0-.3.6q0,.15.3.3c18.5,7.5,19.1,32.6.6,40.4a19.32,19.32,0,0,1-10,1.5c-11.1-1.3-18.8-10.2-19.9-21.3a.53.53,0,0,1,.6-.6h1c.3,0,.5.1.5.5,1.1,10.3,6.5,16.6,16.1,18.8,8.3,2,17.9-3.4,21.4-11.1,4.1-8.9,1-18.8-7.1-24.3a14.81,14.81,0,0,0-9.7-2.8,1,1,0,0,1-1.1-1,1.08,1.08,0,0,1,.8-1.1c.9-.2,1.9-.4,2.9-.6a10.3,10.3,0,0,0,2.8-.8c9.7-4.4,14-15.1,8.5-24.5a17.25,17.25,0,0,0-24.8-4.8,16.62,16.62,0,0,0-7,13,.53.53,0,0,1-.6.6l-.9.1q-.75.15-.6-.6c1-12.5,13-22.4,25.5-17.9C142.9,107.1,144.3,130.5,127.9,137Z" transform="translate(-96.5 -92.05)"/><text class="cls-19" transform="translate(51.44 25.84)">e<tspan class="cls-20" x="13.12" y="0">dição</tspan></text><rect class="cls-13" x="160.76" y="210.84" width="50.4" height="12.5" transform="translate(-167.72 249.82) rotate(-75.3)"/><rect class="cls-13" x="235.27" y="210.66" width="51.8" height="14.7" transform="translate(-112.48 323.25) rotate(-75.3)"/><polygon class="cls-13" points="306.6 99.05 307.3 99.85 311.5 95.05 310.7 94.25 306.6 99.05"/><polygon class="cls-13" points="314.9 99.05 314.2 99.95 310 95.15 310.8 94.25 314.9 99.05"/></svg>